<svg xmlns="http://www.w3.org/2000/svg" version="1.1" width="600px" height="600px" viewBox="0 0 200 200" style="overflow:hidden!important;"><g id="svga-group-wrapper"><g id="svga-group-backs-single"></g><g id="svga-group-humanwrap-move" transform="matrix(1,0,0,1,0,0)"><g id="svga-group-humanwrap"><g id="svga-group-hair-back-move" transform="matrix(1,0,0,1,0,0)"><g id="svga-group-hair-back"></g></g><g id="svga-group-humanbody-back"><path id="SvgjsPath34740" d="M77.6 118.3c0 19.3 3.4 44.1-10 51.9-13.4 7.9-31.9 11.3-37.8 22s-4.4 25.3-4.4 25.3h149.3s.7-18.9-5.1-26.4c-8.1-10.4-27.8-15.5-37.7-20.9s-13.4-25.1-13.4-52.4l-40.9.5z" fill="#ffffff" stroke-width="none" opacity="1"></path></g><g id="svga-group-chinshadow-single"></g><g id="svga-group-humanbody-front"><path id="SvgjsPath34741" d="M175.8 218.7H24.4l-.1-1c-.1-.6-1.5-15.1 4.5-26 4.1-7.4 13.5-11.3 23.5-15.5 5-2.1 10.2-4.3 14.8-6.9 10.6-6.2 10.1-23.9 9.6-41-.1-3.5-.2-6.8-.2-10v-1.1l43.2-.4v1.1c0 29.9 4.2 46.7 12.8 51.4 2.9 1.6 6.7 3.2 10.8 4.9 10 4.1 21.3 8.8 27.2 16.3 6.1 7.7 5.4 26.4 5.4 27.1l-.1 1.1zm-149.3-2.2h147.1c0-4.1-.2-18.5-4.9-24.6-5.5-7-16.6-11.6-26.3-15.6-4.1-1.7-8-3.3-11-5-5.1-2.8-8.7-8.9-10.9-18.7-2-8.4-2.9-19.4-3-33.5l-38.6.4c0 2.8.1 5.7.2 8.8.5 17.8 1 36.1-10.7 43-4.7 2.7-9.9 4.9-15 7.1-9.6 4-18.7 7.8-22.4 14.5-5 8.6-4.7 20.1-4.5 23.6z" fill="#000000" stroke-width="none" opacity="1"></path><path id="SvgjsPath34742" d="M93.9 153.8c-.5 1.8-.4 3.4.5 5.2.8 1.6 2.1 2.7 3.9 2.9.4 0 .7-.5.5-.8-1.6-2.2-3.5-4.2-3.7-7.1 0-.7-1-.9-1.2-.2z" fill="#000000" stroke-width="none" opacity="1"></path><path id="SvgjsPath34743" d="M112.5 187.5c8.8.5 18.1-.7 26.6-2.9.7-.2.6-1.4-.2-1.3-8.8 1.1-17.7 2-26.5 3.3-.5.1-.3.9.1.9z" fill="#000000" stroke-width="none" opacity="1"></path><path id="SvgjsPath34744" d="M63.1 182.5c3.8.9 7.6 1.9 11.5 2.8 3.6.8 7.4 2 11.1 2.1.7 0 .8-.9.2-1.2-3.5-1.4-7.5-1.7-11.2-2.5-3.8-.7-7.5-1.3-11.3-2-.5 0-.7.7-.3.8z" fill="#000000" stroke-width="none" opacity="1"></path></g><g id="svga-group-clothes-single"><path id="SvgjsPath35051" d="M77.6 140.5s-8.6 2.8-13.1 5.9-5.6 10-5.6 10-2.3-3.3-4.5 1.9-1.8 5.6-4 7.9c-2.3 2.3-1 6.8-.2 7.9 0 0-4 2.8-8.4 4s-10.3 4.2-12.1 6.6-9.6 12.8-5.6 34h153.6s0-21-3-27.5-7.7-7.5-7.7-7.5-9.8-7-11.7-8.2-11-4.2-11-4.2-.5-4.2-1.2-7.2-4.6-8.1-6.6-8.4c-2.1-.4-3-2.8-5.6-7-2.6-4.2-5.8-6.5-7.3-7-1.6-.5-3.3-.2-3.3-.2s1.2 8.9 1.2 13.6-.9 7.7-4.6 12.2c-3.7 4.6-6.1 5.8-11.4 9.3s-6.3 5.4-6.3 5.4-3.2-5.1-8.8-8.6S83 166 79 162.5s-1.1-6.1-1.4-11.2c-.3-5.1 0-10.8 0-10.8z" fill="#ffffff" stroke-width="none" opacity="1"></path><path id="SvgjsPath35052" d="M175.6 190.8c-2.8-6.1-7.1-7.7-8.2-8-1.3-.9-9.8-7-11.6-8.1-1.8-1.1-8.5-3.4-10.6-4.1-.2-1.3-.6-4.3-1.2-6.6-.7-3-4.7-8.7-7.5-9.1-1.1-.2-1.8-1.3-3.3-3.9-.5-.8-1-1.6-1.6-2.6-2.6-4.2-5.9-6.8-7.9-7.4-1.8-.6-3.8-.2-3.8-.2-.5.1-.9.6-.8 1.1 0 .1 1.2 8.9 1.2 13.5 0 4.2-.7 7.1-4.3 11.6-3 3.8-5.1 5.1-9 7.6-.7.4-1.4.9-2.2 1.4-3.1 2.1-4.8 3.6-5.7 4.6-1.3-1.8-4.1-5.1-8.3-7.7-3.3-2.1-5.2-4.4-7.1-6.6-1.2-1.4-2.5-2.9-4.1-4.4-2.2-1.9-1.9-3.4-1.5-5.7.3-1.4.6-2.9.4-4.8-.3-4.9 0-10.7 0-10.7 0-.3-.1-.6-.4-.9-.3-.2-.6-.3-.9-.2-.4.1-8.8 2.9-13.4 6.1-3.5 2.4-5 6.7-5.7 9-.4-.2-.8-.3-1.3-.2-1.4.1-2.5 1.3-3.5 3.6-.7 1.7-1.2 2.9-1.5 3.8-.7 1.9-.9 2.4-2.3 3.8-2.2 2.2-1.7 6.2-.8 8.3-1.3.8-4.3 2.5-7.3 3.4-4.6 1.3-10.7 4.3-12.6 7l-.1.2c-6.4 8.9-8.3 20.6-5.6 34.6.1.5.5.8 1 .8h153.6c.6 0 1-.4 1-1 0-1.2-.1-21.6-3.1-28.2zm-33-23.6c.3 1.9.6 3.7.6 4.1 0 .2-.1.8-.6 1.6.3-1.8.2-3.8 0-5.7zm-20.7-19.4c.5.2 1.2.5 1.9.9-.2.1-.3.1-.5.1l-1.2.3c-.2-.5-.2-.9-.2-1.3zm-.1 12.5h1.5c-.6.4-1.3 1-2 1.6.2-.5.4-1 .5-1.6zm4.2-3.1c-1.2.1-2.6.4-3.8.6.1-.5.1-1 .1-1.5 1.3-.1 2.7-.3 3.9-.5 0 .5-.1 1-.2 1.4zm.1-5c.1.5.1.9.1 1.3-1.3 0-2.7.4-3.9.8 0-.5 0-1-.1-1.5 1.3-.2 2.7-.3 3.9-.6zm-3.8 3.6v-1.1c.7-.2 1.4-.3 2.2-.4.6-.1 1.2-.1 1.8-.2v1.1c-1.3 0-2.7.3-4 .6zm-.1-3.5c0-.4-.1-.8-.1-1.1.6-.1 1.1-.1 1.7-.2.6-.1 1.2-.2 1.7-.3.2.3.3.6.4 1-1.2 0-2.5.3-3.7.6zm1.9-2c-.6.1-1.3.2-1.9.4 0-.3-.1-.7-.1-1 .4-.1.9-.2 1.3-.3.3-.1.7-.1 1-.3l.9.9c-.5.1-.9.2-1.2.3zm-1.9 8c1.1-.1 2.4-.2 3.5-.4-.3.7-.9 1.3-1.6 1.8-.7 0-1.5.1-2.2.1l.3-1.5zM76 159.6c-1.2-1.1-2.3-2.2-2.7-3.1-.1-.1-.1-.2-.1-.4.9.7 1.8 1.5 2.8 2.1-.1.5-.1 1 0 1.4zm-.5-10.9c.3.4.7.7 1.1 1 0 .4 0 .9.1 1.3-.3-.2-.5-.4-.8-.6-.4-.3-.7-.6-1.1-.9.1-.2.4-.5.7-.8zm.3-.3c.2-.2.4-.3.6-.4v1c-.1-.2-.3-.4-.6-.6zm-1.4 1.5c.4.4.8.7 1.2 1 .3.3.6.6 1 .8v1c-.8-.7-1.8-1.4-2.7-2 .2-.2.3-.5.5-.8zm-.7 1.4c.9.8 1.8 1.7 2.8 2.3 0 .3-.1.6-.1.9-.4-.3-.9-.6-1.4-.9-.6-.4-1.2-.8-1.7-1.2.1-.4.3-.8.4-1.1zm-.5 1.5c.5.4 1.1.8 1.6 1.2.5.4 1 .8 1.6 1.1 0 .2-.1.4-.1.5 0 .1-.1.3-.1.4-.5-.3-1-.6-1.4-.9l-1.8-1.2c0-.3.1-.7.2-1.1zm2.7 4.8c-.9-.8-1.9-1.5-2.9-2.1v-1c.4.4.9.7 1.4 1.1.5.4 1.1.8 1.7 1.2-.1.2-.1.5-.2.8zm-22.1 4.8c.3-.9.8-2 1.5-3.7.9-2.1 1.6-2.3 1.8-2.4.3 0 .6.2.8.4.1 2.2 1.5 13.1 16.7 21.5.2.1.3.1.5.1.3 0 .7-.2.8-.5.1.2.2.5.3.7.1.1.3.1.3-.1-.2-2-.6-3.7-.3-5.7 0-.2-.3-.4-.4-.1-.2 1.2-.4 2.5-.2 3.8l-.1-.1c-.1-.1-.2-.1-.3-.2-.3-1.7-.5-3.3-.4-5 0-.3-.4-.3-.4 0-.2 1.5-.2 3.1.1 4.6-.4-.3-.9-.5-1.3-.8-.2-.5-.3-1.1-.4-1.6-.2-1.1-.1-2.1.1-3.1 0-.2-.3-.3-.3-.1-.3 1.3-.4 3 0 4.4-.4-.2-.7-.5-1-.7-.1-2.3-.2-4.5.1-6.8 0-.3-.4-.2-.4 0-.3 2.1-.4 4.2-.2 6.4-.6-.4-1.2-.9-1.7-1.4-.1-2.1-.1-4.2.3-6.4 0-.2-.2-.3-.3-.1-.5 2-.7 4-.6 6-.4-.4-.8-.8-1.2-1.1 0-1-.1-2.1 0-3.1.1-1.4.4-2.8.8-4.1.1-.2-.2-.3-.3-.1-.7 2-1.3 4.5-1 6.7-.4-.4-.7-.8-1.1-1.1-.2-1 .2-3.2.2-3.5.2-1.4.5-2.7 1-4 .1-.2-.2-.2-.3-.1-.8 2.3-1.3 4.7-1.4 7.1-.3-.3-.5-.6-.8-1 .1-.1.1-.2.1-.2.1-.1-.1-.3-.2-.2.2-2.9.8-5.8 1.8-8.5.1-.2-.2-.3-.3-.1-1 2.7-1.7 5.5-1.9 8.3-.3-.5-.6-.9-.9-1.4.7-2.8 1.1-5.7 2.1-8.5.1-.3-.3-.4-.4-.1-.9 2.5-1.8 5.3-2 8-.4-.6-.7-1.2-1-1.8.7-3 1.1-5.8 2.5-8.6.1-.2-.2-.4-.3-.2-1.3 2.4-2.4 5.3-2.6 8.1-.3-.8-.6-1.6-.8-2.2 1.2-2.8 1.9-5.8 3.1-8.6.1-.2-.2-.4-.3-.2-1.2 2.5-2.6 5.3-3.1 8-.3-1.4-.4-2.3-.4-2.6 1.2-2.5 2.1-5.1 3.3-7.6.5-.6 1.1-1.2 1.8-1.7 3.3-2.3 8.9-4.4 11.5-5.3 0 1-.1 2.4-.1 3.9-1.9.7-3.5 2.3-4.5 4.5-1.1 2.5-1.3 5.3-.5 7.1 1.1 2.4 5.2 5.4 8.7 7.8.3.2.5.3.6.4l1.5 1.8c2 2.3 4 4.8 7.6 7 5.3 3.3 8.4 8.2 8.4 8.2.2.3.5.5.9.5.3 0 .7-.2.8-.5 0 0 1.1-1.8 6-5.1.8-.5 1.5-1 2.2-1.4 3.2-2.1 5.4-3.5 7.8-6.2.2 0 .4-.1.5-.3.1-.1 5.5-6.1 8.3-7.9 3.5-2.4 3.9-5.5 3.3-9.8-.6-4.3-5-5.9-6.5-6.3-.2-1.3-.3-2.4-.4-3.2.5 0 1.2 0 1.9.2 1.4.5 4.3 2.6 6.8 6.6.6.9 1.1 1.8 1.5 2.6 0 0 0 .1.1.1l-.7-.7c-.1-.1-.3.1-.2.2.7.8 1.3 1.7 2 2.5v.1s.3 1.1.3 2.9c-.5-.8-1.1-1.6-1.4-2.5-.1-.2-.4-.1-.4.1.4 1.2.9 2.4 1.8 3.3 0 .3 0 .7-.1 1.1-.5-.7-1.1-1.3-1.5-1.9-.1-.2-.5 0-.3.2.5.7.9 1.4 1.4 2.1.1.2.2.3.3.5-.1.6-.2 1.2-.3 1.9-.5-.6-1-1.2-1.4-1.8-.1-.2-.4.1-.3.2.5.7 1 1.6 1.6 2.3-.1.5-.3 1.1-.6 1.7-.2-.4-.4-.9-.5-1.3-.1-.2-.5-.1-.4.1.2.6.4 1.4.6 2.1-.2.5-.5 1.1-.9 1.6-.1-.3-.1-.6-.1-.9 0-.3-.4-.3-.4 0 0 .5.1 1.1.1 1.6-.4.5-.8 1.1-1.2 1.6-.1-.6-.2-1.3-.3-1.9 0-.2-.4-.2-.4.1.1.8.1 1.6.2 2.3-.4.4-.8.9-1.2 1.3 0-.8-.1-1.5-.2-2.3 0-.3-.4-.3-.4 0 0 .9-.1 1.9 0 2.9-.3.3-.6.6-.9.8 0-.2 0-.5-.1-.7 0-.8-.1-1.5-.1-2.2 0-.3-.4-.3-.4 0 0 .8 0 1.5.1 2.2v1.2c-.4.4-.9.7-1.3 1.1 0-.2-.1-.4-.1-.7 0-.6 0-1.1.1-1.7 0-.3-.3-.4-.4-.1-.2.9-.4 2-.1 2.9-.3.3-.7.5-1 .8 0-.4-.1-.8-.1-1.2 0-.3-.5-.3-.5 0v1.6c-.4.3-.7.5-1.1.8 0-.4-.1-.9-.1-1.3 0-.3-.5-.3-.5 0 0 .6 0 1.1.1 1.6-.4.3-.8.5-1.1.7v-1.8c0-.3-.4-.3-.4 0 0 .6-.1 1.1-.1 1.7v.5c-.4.2-.7.4-1.1.6v-1.4c0-.3-.4-.2-.4 0-.1.5-.1 1.1-.1 1.6-.2.1-.5.2-.7.3-.1 0-.1 0-.1.1 0-.4.1-.7.1-1.1 0-.2-.4-.2-.4 0-.1.4-.1.8-.2 1.3-.3.1-.7.3-1 .4v-1.3c0-.2-.4-.2-.4 0 0 .5-.1 1-.2 1.5-.5.2-1 .4-1.4.5v-1c0-.3-.4-.3-.4 0 0 .4-.1.8-.1 1.2-.3.1-.6.2-.8.3 0-.4.1-.7.1-1.1 0-.2-.4-.3-.4-.1-.1.4-.1.9-.2 1.3-.2.1-.4.1-.4.1-.5.2-.8.7-.7 1.2.1.4.5.7 1 .7h.3c.1 0 1.5-.5 4.4-1.6v.1c0 .2.3.1.3 0s0-.1.1-.2c.4-.1.7-.3 1.1-.4 3.7-1.5 13.6-8.3 16.3-15 1.5-3.6 1.7-6.9 1.6-9 .4.2.8.4 1.2.4 1.4.2 5 4.6 5.8 7.4-.1 0-.2.1-.2.2.3 3.2.1 6.4.2 9.5-.2.2-.4.5-.6.7v-8.7c0-.2-.4-.2-.4 0-.1 3.1-.2 6.2-.2 9.3l-.5.5c0-2.4-.3-4.8-.4-7.2 0-.2-.4-.3-.4 0 .1 2.6-.1 5.2.2 7.8-.2.1-.4.3-.5.4.1-2 0-4.1-.1-6.1 0-.2-.4-.2-.4 0-.1 2.2-.4 4.5-.3 6.7-.2.2-.5.3-.7.5.2-2 .1-4 0-6 0-.2-.4-.2-.4 0 0 2.1-.2 4.3-.3 6.4-.4.2-.9.5-1.4.7.2-1.9 0-3.9 0-5.8 0-.3-.4-.3-.4 0-.1 2-.3 4.1-.2 6.1-.4.2-.8.4-1.3.6.2-1.3.2-2.7.3-4 0-.3-.4-.3-.4 0-.2 1.4-.5 2.9-.6 4.3-.4.2-.9.4-1.3.5.2-1.4.2-2.9.6-4.3.1-.3-.4-.4-.4-.1-.3 1.4-.8 3.1-.9 4.7-.5.2-.9.3-1.4.5.1-1.2 0-2.6.1-3.8 0-.3-.4-.3-.4 0-.1 1.2-.4 2.7-.3 4-.6.2-1.3.4-1.9.7 0-.4 0-.9.1-1.3.1-.9.3-1.7.6-2.5.1-.2-.3-.3-.4-.1-.5 1.2-1 2.7-1 4.1l-.9.3v-.1c.1-.7.1-1.4 0-2.1 0-.3-.5-.3-.5 0 0 .7 0 1.3-.1 2 0 .1-.1.3-.1.5-.4.1-.8.3-1.2.4.1-.6.1-1.2.1-1.8 0-.3-.4-.3-.5 0-.1.6-.2 1.3-.3 2-.5.1-1 .3-1.5.5v-1c0-.3-.5-.3-.4 0v1.2c-.5.2-1 .3-1.5.5.1-.5.3-1.1.4-1.6.1-.3-.3-.4-.4-.1-.2.6-.4 1.3-.6 1.9-.4.1-.8.2-1.2.4.1-.6.2-1.1.3-1.6.1-.3-.4-.4-.4-.1-.2.6-.4 1.3-.5 1.9-.2.1-.4.1-.6.2.1-.4.2-.9.4-1.3.1-.2-.3-.4-.4-.1-.2.5-.4 1-.6 1.6-.2.1-.3.1-.5.1 0-.2.1-.4.1-.6.1-.2-.3-.3-.3-.1-.1.3-.2.5-.3.8-.5.1-.9.3-1.3.4 0-.1-.2-.2-.3 0 0 .1-.1.1-.1.1-.8.2-1.6.4-2.2.6-1.6.4-2.7.8-3.1.9-.3.1-1.2.2-2.4.2-.2-1.3-.6-2.7-1.5-4.8-.2-.5-.8-.7-1.3-.5s-.7.8-.5 1.3c.8 1.7 1.1 2.9 1.3 3.9H101c-.3-.4-.6-.7-1-1-.2-.2-.5.1-.3.3l.7.7h-1.2c-.2-.2-.4-.5-.6-.7-.4-.6-.7-1.2-.9-1.9-.1-.3-.5-.2-.4.1.2.8.6 1.7 1.1 2.5-.4 0-.9 0-1.3-.1-.1-1.8-.1-3.5-.1-4.4 0-.6-.4-1-1-1s-1 .4-1 1c0 .4 0 2.2.1 4.3h-.2c-.3-.4-.7-.8-.9-1.3-.4-.7-.6-1.5-.7-2.3 0-.2-.4-.3-.4 0 .1 1.1.4 2.6 1.2 3.5-.5 0-.9-.1-1.4-.1-.2-.4-.5-.9-.7-1.3-.3-.7-.5-1.5-.5-2.3 0-.2-.4-.3-.4 0 0 1.1.3 2.6 1 3.6-.3 0-.5 0-.8-.1-.2-.6-.7-1.1-.9-1.7-.3-.7-.4-1.4-.4-2.1 0-.3-.4-.3-.4 0-.1 1.1.2 2.9 1.1 3.8-.4 0-.8-.1-1.3-.1-.3-.6-.8-1.2-1.1-1.8-.3-.8-.5-1.6-.5-2.4 0-.3-.4-.3-.4 0 0 1.3.3 3.1 1.3 4.1-.6-.1-1.2-.1-1.8-.2-.3-.4-.5-.9-.7-1.4-.3-.8-.4-1.6-.5-2.4 0-.3-.5-.3-.4 0 0 1.2.3 2.6.9 3.7-.4-.1-.9-.1-1.3-.2-.2-.4-.5-.9-.7-1.4-.3-.8-.5-1.5-.5-2.3 0-.3-.4-.3-.4 0 .1 1.2.3 2.5 1 3.6-.5-.1-.9-.1-1.3-.2-.4-.6-.8-1.1-1-1.7-.4-.8-.6-1.7-.8-2.6 0-.2-.4-.1-.3.1.1 1.3.5 3 1.3 4.1-.7-.1-1.3-.3-1.8-.4-1-1.4-1.8-2.7-2.2-4.5-.1-.2-.3-.1-.3.1.2 1.4.8 2.9 1.7 4.1-.2-.1-.5-.2-.6-.3-.3-.2-.8-.4-1.3-.6-.7-1.5-1.4-3-1.8-4.7-.1-.3-.5-.2-.4.1.2 1.4.6 2.9 1.3 4.1-.3-.1-.7-.3-1-.4-.8-1.6-1.6-3-1.9-4.9 0-.2-.4-.2-.4.1.2 1.5.6 3.2 1.4 4.5-.3-.1-.6-.2-.9-.4-.4-.8-.8-1.5-1.1-2.2-.4-1.1-.7-2.2-.8-3.3 0-.3-.5-.2-.5.1.2 1.6.6 3.6 1.5 5.1l-1.5-.6c-.3-.7-.7-1.3-1-2-.4-.9-.7-1.9-.9-2.9-.1-.3-.5-.2-.4.1.3 1.4.7 3.2 1.6 4.5-.2-.1-.4-.1-.5-.2-.5-.2-1-.4-1.6-.6-.9-1.5-1.5-3-1.8-4.8 0-.2-.4-.2-.4.1 0 1.5.5 3.1 1.3 4.4-.7-.3-1.4-.6-2.1-.8-.8-1.7-1.5-3.4-1.7-5.3 0-.3-.4-.3-.4 0 .1 1.7.5 3.5 1.3 5-.4-.2-.8-.3-1.2-.5-.5-.8-1-1.5-1.4-2.4-.5-1.2-.8-2.5-.9-3.8 0-.3-.4-.3-.4 0 .1 1.9.6 4.1 1.7 5.8-.6-.3-1.3-.5-1.9-.8-1.2-2.1-2.1-4-2.2-6.6 0-.3-.4-.3-.4 0 0 2.1.5 4.4 1.6 6.1-.5-.2-1.1-.5-1.6-.7-1.3-2.3-2.1-4.5-2-7.2 0-.3-.4-.3-.4 0-.2 2.3.3 4.8 1.6 6.8-.3-.2-.7-.3-1-.5-1.3-2.7-2.2-5.2-2.2-8.2 0-.3-.4-.3-.4 0-.1 2.7.5 5.6 1.9 7.9-.7-.4-1.3-.7-1.9-1-1.6-2.4-2.2-4.8-2-7.9v-.1c.8-1.9 1.1-2.7 1.9-4.7zm-3.3 5.3c-.3 2.1.2 4.4 1.3 6.3-.3-.2-.6-.4-.8-.6-.6-.7-1.5-3.7-.5-5.7zM33.2 183c.3.9.8 2.5 1.4 4.6-.7-.3-1.5-.5-2.1-.9-.7-.4-1.3-1-1.8-1.6.5-.7 1.4-1.4 2.5-2.1zm-2.8 2.5c1.1 1.3 2.7 2.5 4.4 2.6.2.8.5 1.7.7 2.7l-.1-.1c-2.4-.9-4.4-1.8-6.2-3.4l1.2-1.8zm-6.2 27.4c3.5 2.2 7.7 4.1 11.8 4.8H24.9c-.3-1.6-.5-3.2-.7-4.8zm12.9 4.8c0-.1 0-.2-.1-.3-4.5-1.5-8.6-2.9-12.8-5.1-.1-.9-.1-1.9-.2-2.8 4.6 2.7 10 5.1 15.2 6.1.2 0 .3-.2.1-.3-5.1-2.2-10.2-4.2-15.3-6.5v-2.9c3.5 2.5 7.6 4.5 11.9 5.4.3.1.4-.4.1-.5-4.2-1.6-8.2-3.2-12-5.5 0-1.2.1-2.3.3-3.4 2.9 1.7 5.9 3.1 9.1 4 .3.1.4-.4.1-.5-3.1-1.3-6.2-2.6-9.2-4.1.1-.9.3-1.8.4-2.6 3 2.4 6.6 4.4 10.4 5 .2 0 .3-.2.1-.3-3.7-1.5-7.1-3.1-10.4-5.2l.6-2.4c2.8 1.9 5.8 3.8 9 4.7.2.1.3-.2.1-.3-3-1.7-6-3.1-8.9-4.9.3-.9.5-1.7.9-2.5 2.4 1.8 5.3 3.1 8.3 3.6.3 0 .4-.3.1-.4-2.9-1-5.6-2.2-8.2-3.8.2-.6.5-1.2.8-1.8 2.2 2 4.9 3.6 7.8 3.9.2 0 .2-.2 0-.3-2.8-1.1-5.3-2.2-7.6-4.1.4-.7.7-1.4 1.1-2.1 1.7 1.8 4.1 3.1 6.5 3.3.1 0 .1 0 .2-.1 1.4 5.9 3.1 14.8 4.1 26.7h-2.5zm4.5 0C39.9 196.6 36 184.9 35 182c2.2-1.2 4.9-2.3 7-2.9 3.5-1 6.7-2.9 8.1-3.7 3.3 2.5 11.8 5.9 18.6 8.6 3.8 1.5 7.2 2.8 8.6 3.6 2.4 1.3 10.3 2.2 17.6 2.6.2 1.5.4 2.9.7 3.8.7 1.9.5 3.3-.2 7.5l-.3 1.8c-.3 1.9-.7 3.4-1.1 4.8-.7 2.6-1.3 4.6-.2 6.8.2.4.5.6.9.6.1 0 .3 0 .4-.1.5-.2.7-.8.5-1.3-.8-1.6-.3-3 .3-5.4.4-1.3.8-3 1.2-5l.3-1.8c.7-4.3 1-6.1.1-8.5-.2-.6-.4-1.8-.6-3 2.3.1 4.5.2 6.4.2 0 .5-.1 1.1-.1 1.7-.1.7-.1 1.5-.2 2.4-.2 4.4.8 10 .9 10.9l-.2 9c0 .6.4 1 1 1 .5 0 1-.4 1-1l.2-9.1v-.2c0-.1-1.1-6-.9-10.5 0-.9.1-1.7.2-2.4s.1-1.3.1-1.9c1.5 0 2.5-.1 2.9-.3.4-.1 1.5-.4 3-.9 2.4-.7 5.7-1.6 9.2-2.7.1.1.3.1.4 0l.1-.1c6.8-2.1 14.4-4.6 17.7-6.8 4.4-2.9 5.9-5.5 6.4-7 3 1 8.4 2.9 9.8 3.8 1.6 1 9.1 6.4 11.1 7.8-.6 3.2-3.3 18.3-2.9 33.6l-121.4-.2zm123.3-1.3c.9.5 1.8.9 2.8 1.3H165c0-.4 0-.9-.1-1.3zm4.4 1.3c-1.4-.7-2.9-1.4-4.4-1.9v-3.1c2.8 2 6 3.5 9.3 4 .3 0 .4-.4.1-.4-3.4-1.1-6.5-2.3-9.4-4.2 0-1.1.1-2.1.1-3.2 2.6 1.2 5.3 2.4 8 3.2.2.1.4-.3.2-.4-2.6-1.3-5.4-2.4-8.1-3.4.1-1.1.1-2.1.2-3.1 2.3 1.5 4.8 2.8 7.4 3.6.2.1.4-.3.2-.4-2.6-1.2-5.1-2.3-7.6-3.8.1-.9.1-1.8.2-2.7 1.8 1.7 4.7 2.7 7.1 2.8.2 0 .3-.3.1-.4-1.4-.4-2.8-.8-4.2-1.4-1-.5-1.9-1.1-2.9-1.7.1-.9.2-1.7.2-2.6 2.1 1.2 4.2 2.5 6.4 3.3.2.1.3-.2.1-.3-2-1.4-4.3-2.4-6.5-3.4.1-1.1.2-2.1.4-3 1.6 1.1 3.2 2.2 4.9 3.1.2.1.3-.1.1-.2-1.6-1.2-3.3-2.3-5-3.2.3-2.3.6-4.3.8-6 1 .9 2 1.8 3.1 2.5.2.1.4-.1.2-.3-.9-1-2.1-1.9-3.2-2.7.2-1.4.4-2.5.6-3.2 1.4.7 4.1 2.4 6 6.6 2.5 5.4 2.8 21.9 2.9 26.1l-7.3-.2zm-2.3-25.9c-.3-.1-.4.2-.2.4 1.2.9 2.5 1.9 3.8 2.4.2.1.5-.2.3-.4-1.2-1-2.6-1.8-3.9-2.4zm-87.4-12.2c-.1-.8-.4-1.6-.6-2.5-.2-1-.2-1.9-.1-2.9 0-.3-.4-.3-.4 0-.2 1.7-.1 4 .8 5.5.1.2.3.1.3-.1zm1.9.9c.1-1.6-.3-3.4-.5-5 0-.3-.4-.3-.4 0 .1 1.7.1 3.5.5 5.1.1.2.4.1.4-.1zm1.2.1c.1-1.3-.3-2.7-.5-4.1 0-.2-.3-.1-.3.1.1 1.3.1 2.8.5 4.1 0 .2.3.1.3-.1zm2 1c-.2-1.5-.8-2.8-1-4.3 0-.3-.4-.3-.4 0 .1 1.4.3 3.2 1.1 4.4.1.2.3.1.3-.1zm2.1.2c.1.1.2-.1.1-.2-.3-.3-.6-.6-.8-1-.2-.4-.4-.8-.4-1.2 0-.3-.5-.2-.4.1 0 .9.5 2 1.5 2.3zm2.4.7c.1.1.3 0 .3-.2-.4-.9-1.1-1.8-1.7-2.6-.2-.2-.6 0-.4.2.6.9 1.1 1.8 1.8 2.6zm19 .3c.2-.5.2-1.2.2-1.8 0-.2-.4-.2-.4 0-.1.6-.3 1.2-.1 1.8.1.1.3.1.3 0zm1.3-.4c.2-.4.2-.8.3-1.2.1-.5.2-.9.3-1.4.1-.3-.3-.4-.4-.1l-.3 1.5c-.1.4-.2.8-.1 1.2-.1.1.1.2.2 0z" fill="#000000" stroke-width="none" opacity="1"></path></g><g id="svga-group-head" transform="matrix(1,0,0,1,0,0)"><g id="svga-group-ears-left-move" transform="matrix(1,0,0,1,0,0)"><g id="svga-group-ears-left"><path id="SvgjsPath34644" d="M58.9 77.8s-2.5-2.4-5.4-3.5c-2.9-1.1-6.1.7-7.1 3.7-1 2.9 1.3 15.1 5 19.5s6.2 4.8 8.7 2.5c2.6-2.4 7-10.8-1.2-22.2z" fill="#ffffff" stroke-width="none" opacity="1"></path><path id="SvgjsPath34645" d="M56.8 102.3c-1.9-.1-3.8-1.5-6.1-4.2-3.9-4.7-6.3-17.1-5.2-20.5.6-1.8 1.9-3.3 3.6-4.1 1.5-.7 3.2-.8 4.8-.2 3.1 1.2 5.6 3.6 5.7 3.7l.1.1c8.7 12.2 3.5 21.2 1.1 23.5-1.2 1.1-2.4 1.6-3.7 1.6-.1.1-.2.1-.3.1zm-3.6-27.1c-1.3-.5-2.5-.2-3.2.1-1.2.6-2.1 1.6-2.6 2.9-.8 2.5 1.3 14.3 4.9 18.5 1.9 2.3 3.4 3.4 4.7 3.5.8.1 1.6-.3 2.5-1.1 2.1-1.9 6.5-9.8-1.3-20.7-.4-.3-2.6-2.2-5-3.2z" fill="#000000" stroke-width="none" opacity="1"></path><path id="SvgjsPath34646" d="M50.2 77.4c3.3.6 5.4 6.1 6 9.8.1.1.1.2.2.3.4.6-.4 1.2-.8.6-.5-.8-1-1.6-1.8-1.9-1.4-.5-2.1 1.1-1.8 2.6.4 1.9 1.6 3 2.6 4.4.1.1 0 .3-.1.2-1.7-1-4.3-4.8-3.1-7.2.9-1.7 2.3-1.4 3.4-.4-.8-2.1-1.4-4.3-3-5.9-.5-.5-1.5-1.4-2.2-1.3-1.3.2-1.3 2.1-1.3 3.4-.1 1.7.1 3.4.4 5 0 .2-.2.2-.3.1-.6-2.4-2-10.4 1.8-9.7z" fill="#000000" stroke-width="none" opacity="1"></path></g></g><g id="svga-group-ears-right-move" transform="matrix(1,0,0,1,0,0)"><g id="svga-group-ears-right"><path id="SvgjsPath34647" d="M141.1 77.8s2.5-2.4 5.4-3.5c2.9-1.1 6.1.7 7.1 3.7 1 2.9-1.3 15.1-5 19.5s-6.2 4.8-8.7 2.5c-2.6-2.4-7-10.8 1.2-22.2z" fill="#ffffff" stroke-width="none" opacity="1"></path><path id="SvgjsPath34648" d="M142.9 102.3c-1.3 0-2.5-.5-3.7-1.6-2.5-2.2-7.6-11.3 1.1-23.5l.1-.1c.1-.1 2.7-2.5 5.7-3.7 1.5-.6 3.2-.5 4.8.2 1.7.8 3 2.3 3.6 4.1 1.1 3.3-1.3 15.8-5.2 20.5-2.3 2.7-4.2 4.1-6.1 4.2-.1-.1-.2-.1-.3-.1zm-1.1-23.9c-7.8 10.9-3.4 18.8-1.3 20.7.9.8 1.7 1.2 2.5 1.1 1.3-.1 2.8-1.2 4.7-3.5 3.5-4.2 5.7-16.1 4.9-18.5-.4-1.3-1.4-2.4-2.6-2.9-.7-.3-1.9-.6-3.2-.1-2.4 1-4.6 2.9-5 3.2z" fill="#000000" stroke-width="none" opacity="1"></path><path id="SvgjsPath34649" d="M149.8 77.4c-3.3.6-5.4 6.1-6 9.8-.1.1-.1.2-.2.3-.4.6.4 1.2.8.6.5-.8 1-1.6 1.8-1.9 1.4-.5 2.1 1.1 1.8 2.6-.4 1.9-1.6 3-2.6 4.4-.1.1 0 .3.1.2 1.7-1 4.3-4.8 3.1-7.2-.9-1.7-2.3-1.4-3.4-.4.8-2.1 1.4-4.3 3-5.9.5-.5 1.5-1.4 2.2-1.3 1.3.2 1.3 2.1 1.3 3.4.1 1.7-.1 3.4-.4 5 0 .2.2.2.3.1.6-2.4 2-10.4-1.8-9.7z" fill="#000000" stroke-width="none" opacity="1"></path></g></g><g id="svga-group-faceshape-wrap"><g id="svga-group-faceshape-single"><path id="SvgjsPath34722" d="M142.4 53.6c-2.3-11.4-15.1-28.8-42.4-28.8S63.6 38.2 59.6 48.1c-2.5 6.2-3.2 15.2-3.4 19.7 0 0 .5 33.6 2.2 41.1 1.8 7.4 11.2 32.6 35.6 33.9 21.8 1.1 35.2-11.4 41.9-27 6.7-15.6 7.8-48 7.8-48 .1-3.2-.2-8.9-1.3-14.2z" fill="#ffffff" stroke-width="none" opacity="1"></path><path id="SvgjsPath34723" d="M96.8 144c-.9 0-1.9 0-2.8-.1-10.8-.6-19.9-5.6-27.1-15.1-5.2-6.8-8.4-14.9-9.5-19.7-1.8-7.5-2.2-39.9-2.3-41.3.2-4.8.9-13.8 3.4-20.1 6.6-16.2 20.1-24 41.5-24 12.3 0 23.2 3.6 31.3 10.4 6.3 5.2 10.9 12.5 12.2 19.3 1.1 5.5 1.3 11.4 1.4 14.4 0 1.3-1.2 32.8-7.9 48.4-4.5 10.6-15.7 27.8-40.2 27.8zM57.3 67.9c0 1.2.5 33.7 2.2 40.8 1.1 4.6 4.1 12.3 9.1 18.8 6.8 8.9 15.3 13.7 25.4 14.2 25.1 1.3 36.4-15.9 40.8-26.3 6.5-15 7.7-46.4 7.7-47.5 0-3-.3-8.7-1.4-14-1.3-6.4-5.6-13.1-11.5-18-7.7-6.5-18-9.9-29.9-9.9-20.3 0-33.2 7.4-39.4 22.6-2.1 5.9-2.8 14.6-3 19.3z" fill="#000000" stroke-width="none" opacity="1"></path></g></g><g id="svga-group-mouth-single-move" transform="matrix(1,0,0,1,0,0)"><g id="svga-group-mouth-single"><path id="SvgjsPath34815" d="M117.11 115.24c-.34-.18-.6-.42-.78-.76-.35-.63-1.32-.07-.97.57.05.09.12.16.18.24-.01 0-.02 0-.03.01a38.04 38.04 0 0 1-7.15 2.53.56.56 0 0 0-.26-.01c-2.35.46-4.66.17-7.03.14-.74-.01-1.58.02-1.84.66-.71-.88-1.89-.76-3.04-.77-2.01-.01-4.03.01-6.04-.01h-.03c-1.84-.45-3.64-1.04-5.41-1.76l-.03-.03c.03-.17 0-.35-.14-.49-.2-.2-.6-.23-.79 0-.3.35-.59.7-.89 1.05-.2.23-.23.57 0 .79.2.2.6.23.79 0 .12-.14.24-.28.35-.42.02.01.03.03.05.04h.01c2.85 2.85 5.63 5.83 8.62 8.54 2.43 2.21 5.3 2.28 8.46 2.17 3.4-.13 5.96-1.38 8.39-3.76 2.48-2.43 4.79-5.09 6.93-7.83.03.01.04.04.07.05.27.14.61.07.77-.2.16-.23.08-.61-.19-.75zm-30.48 2.75c9.03 3.05 18.91 2.7 27.73-.97-1.34 1.61-2.75 3.16-4.18 4.68-6.42 2.51-13.26 2.45-19.73.02-.02-.01-.03.01-.05 0-1.26-1.24-2.51-2.48-3.77-3.73zm22.46 4.84-.06-.12c.09-.03.19-.06.28-.1l-.22.22zm-.5.49c-.07-.13-.15-.27-.22-.4.04-.01.08-.02.12-.04v.02c.06.11.11.23.17.34-.02.03-.04.06-.07.08zm-.89.77c-.19-.27-.38-.55-.57-.82.07-.02.15-.03.22-.05l.39.84c-.02.01-.03.02-.04.03zm-.65.48-1.03-1.03.52-.12c.24.34.47.68.71 1.02-.07.04-.13.08-.2.13zm-.83.54c-.31-.48-.62-.96-.92-1.44l.18-.03c-.01.07.01.15.08.22l1.04 1.04c-.13.07-.26.14-.38.21zm-.72.4c-.3-.57-.61-1.14-.91-1.72.04-.01.08-.01.12-.02v.01l1.02 1.59c-.08.06-.15.11-.23.14zm-.54.24c-.44-.58-.81-1.2-1.13-1.84.06-.01.11-.02.17-.02l.99 1.86c-.02-.01-.03-.01-.03 0zm-.91.34c-.48-.65-.89-1.34-1.25-2.07.14-.01.28-.02.42-.04.34.7.74 1.36 1.21 1.99-.12.04-.25.08-.38.12zm-.68.19c-.57-.73-1.14-1.46-1.7-2.18.18-.01.36-.01.53-.03.35.77.8 1.49 1.29 2.18-.04 0-.08.02-.12.03zm-.83.16c-.44-.58-.82-1.18-1.16-1.82l1.39 1.78c-.08.02-.15.03-.23.04zm-.85.13c-.6-.78-1.14-1.59-1.62-2.45h.44c0 .02-.01.04 0 .07.39.83.88 1.6 1.42 2.35l-.24.03zm-.97.05c-.54-.8-1.01-1.63-1.41-2.51.05 0 .09.01.14.01.01.03-.01.05.01.08.47.84 1 1.64 1.57 2.41-.1 0-.2.01-.31.01zm-.77.02c-.53-.86-1.06-1.72-1.59-2.59.11.01.22.01.33.02v.03c.39.89.86 1.73 1.39 2.54h-.13zm-2.19-.05c-.62-.89-1.18-1.82-1.67-2.8.03.01.07.01.1.02 0 .04.01.09.05.13.66.92 1.4 1.78 2.09 2.68l-.57-.03zm-.97-.12c-.53-.92-1.03-1.86-1.5-2.82.04.01.08.02.11.02v.02c.47.98 1.03 1.9 1.63 2.8-.08 0-.16 0-.24-.02zm-1.71-.55c-.59-.9-1.18-1.81-1.78-2.71.1.03.2.05.3.08.53.9 1.06 1.79 1.59 2.69a1.09 1.09 0 0 0-.11-.06zm-1.74-1.26c-.38-.53-.7-1.1-.97-1.7.05.01.1.03.14.04.01.02 0 .03.01.05l1.38 2.1c-.19-.16-.38-.32-.56-.49zm2.68 1.61c-.55-.93-1.1-1.87-1.65-2.8.07.02.15.03.22.05.45.94.94 1.85 1.45 2.76-.01 0-.02-.01-.02-.01zm2.97.37c.01-.01.01-.02.02-.03-.17-.18-.31-.42-.46-.61-.54-.7-1.1-1.38-1.63-2.08.25.03.51.05.76.08.01.01 0 .02 0 .03.54.87 1.08 1.75 1.61 2.62-.1-.01-.2-.01-.3-.01zm2.11-2.52c.01 0 .01 0 0 0 .01 0 .01 0 0 0 .01 0 0 0 0 0zm-9.81-1.51c.15.05.31.1.46.15-.01.05-.03.09-.01.15.04.1.09.19.13.29l-.09-.09c-.16-.17-.33-.33-.49-.5z" fill="#000000" stroke-width="none" opacity="1"></path></g></g><g id="svga-group-eyes-left-move" transform="matrix(1,0,0,1,0,0)"><g id="svga-group-eyes-left"><g id="svga-group-eyesback-left"></g><g id="svga-group-eyesiriswrapper-left"><g id="svga-group-eyesiriscontrol-left" transform="matrix(1,0,0,1,0,0)"><g id="svga-group-eyesiris-left"><path id="SvgjsPath34759" d="M75.2 84.7c-1.5 1.9-1.3 4.5.4 6 1.8 1.7 4.9 2.1 7.1.1 1.1-1.1 1.8-2.7 1.5-4.1-.1-.5-.3-1-.6-1.4-.2-.6-.5-1.1-1-1.5-2.1-1.8-5.6-1.4-7.4.9z" fill="#ffffff" stroke-width="none" opacity="1"></path><path id="SvgjsPath34760" d="M84.4 86.7c-.1-.5-.3-1-.6-1.5-.2-.6-.6-1.1-1.1-1.6-1-.9-2.3-1.4-3.8-1.2-1.6.1-3.1.9-4 2.1-1.6 2-1.4 4.8.4 6.4 1 .9 2.5 1.5 3.9 1.5 1.2 0 2.5-.4 3.5-1.4 1.4-1.2 2.1-2.9 1.7-4.3zm-.6-.1c-.7.1-1.4.2-2 .2 0-.1-.1-.2-.1-.2.4-.1.8-.3 1.2-.5.2-.1.4-.1.6-.3.1.3.2.5.3.8zm-.9-1.8.3.6v.1c-.6.3-1.2.5-1.8.8-.1-.1-.1-.2-.2-.3.7-.3 1.2-.8 1.7-1.2zm-.6-.7c.2.2.3.3.4.5-.6.4-1.2.8-1.6 1.3l-.1-.1c-.1-.1-.2-.1-.3-.2.2-.3.5-.7.7-1.1.1-.2.3-.4.5-.7.2.1.3.2.4.3zm-2.1.1c0-.4.1-.7.1-1.1.5.1.9.3 1.3.5-.2.2-.3.5-.5.7-.2.4-.5.7-.6 1.1-.1-.1-.3-.1-.4-.2.1-.3.1-.7.1-1zM79 83h.4c.2 0 .5 0 .7.1-.1.3-.1.6-.1 1 0 .3-.1.7-.1 1.1-.2 0-.4-.1-.6-.1 0-.3-.1-.7-.2-1 0-.4-.1-.7-.1-1.1zm-4.5 3.9c.7.2 1.5.4 2.2.3 0 .2-.1.5 0 .7-.7-.1-1.5 0-2.2 0v-1zm.1 1.3c.7-.1 1.5-.1 2.2-.1 0 .1.1.2.1.3-.4.1-.7.3-1.1.4-.3.1-.6.2-.9.4-.2-.3-.3-.6-.3-1zm.7 1.7c-.1-.1-.2-.3-.3-.4.3-.1.6-.3.9-.4.3-.1.7-.3 1-.4-.5.4-1.1.8-1.6 1.2zm.5.6-.3-.3c.6-.4 1.1-.8 1.6-1.2.1.1.1.2.2.2-.2.2-.4.5-.6.7-.2.3-.4.5-.6.8-.1-.1-.2-.2-.3-.2zm.5.4c.2-.3.4-.6.7-.8.2-.2.4-.4.6-.7.1.1.2.2.3.2-.2.2-.4.6-.5.8-.2.2-.4.5-.6.7-.2 0-.3-.1-.5-.2zm.8.4c.2-.2.3-.4.5-.6.2-.3.5-.6.6-1 .1 0 .2.1.3.1-.2.6-.3 1.2-.5 1.8-.4-.1-.7-.2-.9-.3zm1.1.4c.3-.5.5-1.2.5-1.8.2 0 .4.1.6.1-.1.6 0 1.2 0 1.8-.4 0-.8 0-1.1-.1zm1.4.1c0-.6 0-1.2-.1-1.8.2 0 .4 0 .6-.1.2.6.3 1.2.5 1.7-.4.1-.7.2-1 .2zm3.2-1.7c-.5-.2-.9-.6-1.3-.9 0 .1-.1.2-.1.3.3.3.7.7 1.1.9l-.2.2c-.2.2-.4.3-.6.4-.1-.2-.3-.5-.4-.7-.1-.2-.2-.3-.3-.5-.1 0-.2.1-.3.1.1.2.2.4.3.5.1.2.3.5.5.8-.3.2-.5.3-.8.4-.2-.6-.4-1.1-.6-1.7.1 0 .1 0 .2-.1-.2-.1-.3-.2-.3-.4-.8.3-1.7 0-2.3-.5-.4-.4-.6-.9-.6-1.4-.2-.2-.4-.4-.5-.6-.4-.1-.8-.1-1.1-.1-.3-.1-.6-.1-.9-.2.1-.4.2-.8.4-1.1.3.2.7.4 1 .5.2.1.4.2.5.3 0-.1 0-.3.1-.4-.2-.1-.3-.2-.5-.2-.3-.2-.6-.3-1-.4.1-.1.2-.2.3-.4.2-.2.4-.4.6-.7.1.2.4.4.6.6.1.2.3.3.4.4.1-.1.2-.1.3-.2l-.1-.1-.6-.6c-.1-.1-.2-.3-.3-.4.3-.2.6-.4.8-.5.1.3.3.6.4.8.1.2.3.5.5.7.2 0 .3.1.4.1l-.6-.9c-.1-.2-.2-.5-.4-.8.4-.2.8-.3 1.2-.3 0 .3.1.7.2 1.1.1.3.1.7.2 1-.2 0-.3.1-.5.1.2.1.3.2.4.4h.4c.5 0 1 .2 1.3.5.2.2.3.4.4.6.1.2.2.4.2.6.1.3 0 .7-.2 1 .2.1.3.2.3.4 0 0 0-.1.1-.1.2.2.6.4.9.5.2.1.5.3.8.4 0 .2-.1.4-.3.6zm.6-.8c-.2 0-.9-.4-1-.5-.2-.1-.3-.2-.5-.2 0 0-.1 0-.2-.1.1-.2.2-.4.2-.6.6.2 1.3.3 2 .3-.2.3-.3.7-.5 1.1zm.5-1.5c-.7-.1-1.3-.2-2-.3v-.4c.7 0 1.4-.1 2-.2v.9zm-3.1.4h.2c.4-1-.2-2.1-1.3-2.4-.2-.1-.4-.1-.6-.1.4.8 0 2-1.2 2h-.3c.1.6.4 1.2 1 1.5.4.2.9.2 1.4.1-.2-.5.1-1.1.8-1.1z" fill="#000000" stroke-width="none" opacity="1"></path></g></g></g><g id="svga-group-eyesfront-left"><path id="SvgjsPath34688" d="M79 72.1c-8.2 0-14.8 6.6-14.8 14.8s6.6 14.8 14.8 14.8 14.8-6.6 14.8-14.8c0-8.1-6.6-14.8-14.8-14.8zM86.6 91c-1 .7-4.1 2.3-8.1 2.2s-11-2.6-11.7-3.5c-.7-1 2-3.2 3.2-4 1.1-.8 4.2-3.3 7.8-3.4 3.6-.1 6.2.8 8.4 2.2 2.2 1.3 3.7 3.7 3.7 3.7s-2.4 2.2-3.3 2.8z" fill="#ffffff" stroke-width="none" opacity="1"></path><path id="SvgjsPath34689" d="M79.4 93.7h.3c5.7-.1 9.7-4.3 9.8-4.5.2-.2.2-.5 0-.7s-.5-.2-.7 0c0 0-3.9 4.1-9.2 4.2-5.3.1-11.5-2.6-12.5-3.4.2-1 4.8-5.5 8.2-6.2 3.4-.7 10.8-.5 14.4 5.8.1.2.4.3.7.2.2-.1.3-.4.2-.7-3.9-6.7-11.8-7-15.4-6.2-3.4.7-8.4 5.1-8.9 6.8-.1.5 0 .8.2.9 1 1 7.4 3.8 12.9 3.8z" fill="#000000" stroke-width="none" opacity="1"></path></g></g></g><g id="svga-group-eyes-right-move" transform="matrix(1,0,0,1,0,0)"><g id="svga-group-eyes-right"><g id="svga-group-eyesback-right"></g><g id="svga-group-eyesiriswrapper-right"><g id="svga-group-eyesiriscontrol-right" transform="matrix(1,0,0,1,0,0)"><g id="svga-group-eyesiris-right"><path id="SvgjsPath34761" d="M117.2 84.7c-1.5 1.9-1.3 4.5.4 6 1.8 1.7 4.9 2.1 7.1.1 1.1-1.1 1.8-2.7 1.5-4.1-.1-.5-.3-1-.6-1.4-.2-.6-.5-1.1-1-1.5-2.1-1.8-5.5-1.4-7.4.9z" fill="#ffffff" stroke-width="none" opacity="1"></path><path id="SvgjsPath34762" d="M126.5 86.7c-.1-.5-.3-1-.6-1.5-.2-.6-.6-1.1-1.1-1.6-1-.9-2.3-1.4-3.8-1.2-1.6.1-3.1.9-4 2.1-1.6 2-1.4 4.8.4 6.4 1 .9 2.5 1.5 3.9 1.5 1.2 0 2.5-.4 3.5-1.4 1.4-1.2 2-2.9 1.7-4.3zm-.7-.1c-.7.1-1.4.2-2 .2 0-.1-.1-.2-.1-.2.4-.1.8-.3 1.2-.5.2-.1.4-.1.6-.3.1.3.2.5.3.8zm-.8-1.8.3.6v.1c-.6.3-1.2.5-1.8.8-.1-.1-.1-.2-.2-.3.6-.3 1.1-.8 1.7-1.2zm-.6-.7c.2.2.3.3.4.5-.6.4-1.2.8-1.6 1.3l-.1-.1c-.1-.1-.2-.1-.3-.2.2-.3.5-.7.7-1.1.1-.2.3-.4.5-.7.1.1.2.2.4.3zm-2.1.1c0-.4.1-.7.1-1.1.5.1.9.3 1.3.5-.2.2-.3.5-.5.7-.2.4-.5.7-.6 1.1-.1-.1-.3-.1-.4-.2 0-.3 0-.7.1-1zM121 83h.4c.2 0 .5 0 .7.1-.1.3-.1.7-.1 1.1 0 .3-.1.7-.1 1.1-.2 0-.4-.1-.6-.1 0-.3-.1-.7-.2-1 0-.5 0-.8-.1-1.2zm-4.4 3.9c.7.2 1.5.4 2.2.3 0 .2-.1.5 0 .7-.7-.1-1.5 0-2.2 0-.1-.3-.1-.6 0-1zm0 1.3c.7-.1 1.5-.1 2.2-.1 0 .1.1.2.1.3-.4.1-.7.3-1.1.4-.3.1-.6.2-.9.4-.1-.3-.2-.6-.3-1zm.7 1.7c-.1-.1-.2-.3-.3-.4.3-.1.6-.3.9-.4.3-.1.7-.3 1-.4-.5.4-1.1.8-1.6 1.2zm.5.6-.3-.3c.6-.4 1.1-.8 1.6-1.2.1.1.1.2.2.2-.2.2-.4.5-.6.7-.2.3-.4.5-.6.8-.1-.1-.2-.2-.3-.2zm.5.4c.2-.3.4-.6.7-.8.2-.2.4-.4.6-.7.1.1.2.2.3.2-.2.2-.4.6-.5.8-.2.2-.4.5-.6.7-.1 0-.3-.1-.5-.2zm.8.4c.2-.2.3-.4.5-.6.2-.3.5-.6.6-1 .1 0 .2.1.3.1-.2.6-.3 1.2-.5 1.8l-.9-.3zm1.1.4c.3-.5.5-1.2.5-1.8.2 0 .4.1.6.1-.1.6 0 1.2 0 1.8-.4 0-.7 0-1.1-.1zm1.4.1c0-.6 0-1.2-.1-1.8.2 0 .4 0 .6-.1.2.6.3 1.2.5 1.7-.4.1-.7.2-1 .2zm3.3-1.7c-.5-.2-.9-.6-1.3-.9 0 .1-.1.2-.1.3.3.3.7.7 1.1.9l-.2.2c-.2.2-.4.3-.6.4-.1-.2-.3-.5-.4-.7-.1-.2-.2-.3-.3-.5-.1 0-.2.1-.3.1.1.2.2.4.3.5.1.2.3.5.5.8-.3.2-.5.3-.8.4-.2-.6-.4-1.1-.6-1.7.1 0 .1 0 .2-.1-.2-.1-.3-.2-.3-.4-.8.3-1.7 0-2.3-.5-.4-.4-.6-.9-.6-1.4-.2-.2-.4-.4-.5-.6-.4-.1-.8-.1-1.1-.1-.3-.1-.6-.1-.9-.2.1-.4.2-.8.4-1.1.3.2.7.4 1 .5.2.1.4.2.5.3 0-.1 0-.3.1-.4-.2-.1-.3-.2-.5-.2-.3-.2-.6-.3-1-.4.1-.1.2-.2.3-.4.2-.2.4-.4.6-.7.1.2.4.4.6.6.1.2.3.3.4.4.1-.1.2-.1.3-.2l-.1-.1-.6-.6c-.1-.1-.2-.3-.3-.4.3-.2.6-.4.8-.5.1.3.3.6.4.8.1.2.3.5.5.7.2 0 .3.1.4.1l-.6-.9c-.1-.2-.2-.5-.4-.8.4-.2.8-.3 1.2-.3 0 .3.1.7.2 1.1.1.3.1.7.2 1-.2 0-.3.1-.5.1.2.1.3.2.4.4h.4c.5 0 1 .2 1.3.5.2.2.3.4.4.6.1.2.2.4.2.6.1.3 0 .7-.2 1 .2.1.3.2.3.4 0 0 0-.1.1-.1.2.2.6.4.9.5.2.1.5.3.8.4 0 .2-.2.4-.3.6zm.5-.8c-.2 0-.9-.4-1-.5-.2-.1-.3-.2-.5-.2 0 0-.1 0-.2-.1.1-.2.2-.4.2-.6.6.2 1.3.3 2 .3-.1.3-.3.7-.5 1.1zm.5-1.5c-.7-.1-1.3-.2-2-.3v-.4c.7 0 1.4-.1 2-.2v.9zm-3.1.4h.2c.4-1-.2-2.1-1.3-2.4-.2-.1-.4-.1-.6-.1.4.8 0 2-1.2 2h-.3c.1.6.4 1.2 1 1.5.4.2.9.2 1.4.1-.1-.5.1-1.1.8-1.1z" fill="#000000" stroke-width="none" opacity="1"></path></g></g></g><g id="svga-group-eyesfront-right"><path id="SvgjsPath34690" d="M121 72.1c-8.2 0-14.8 6.6-14.8 14.8s6.6 14.8 14.8 14.8 14.8-6.6 14.8-14.8c0-8.1-6.6-14.8-14.8-14.8zm-.1 21.1c-3.9.1-7.1-1.5-8.1-2.2s-3.4-2.8-3.4-2.8 1.5-2.4 3.7-3.7c2.2-1.3 4.9-2.2 8.4-2.2 3.6.1 6.6 2.6 7.8 3.4 1.1.8 3.9 3.1 3.2 4-.7 1-7.7 3.4-11.6 3.5z" fill="#ffffff" stroke-width="none" opacity="1"></path><path id="SvgjsPath34693" d="M120 93.7h-.3c-5.7-.1-9.7-4.3-9.8-4.5-.2-.2-.2-.5 0-.7s.5-.2.7 0c0 0 3.9 4.1 9.2 4.2 5.3.1 11.5-2.6 12.5-3.4-.2-1-4.8-5.5-8.2-6.2-3.4-.7-10.8-.5-14.4 5.8-.1.2-.4.3-.7.2-.2-.1-.3-.4-.2-.7 3.9-6.7 11.8-7 15.4-6.2 3.4.7 8.4 5.1 8.9 6.8.1.5 0 .8-.2.9-1 1-7.4 3.8-12.9 3.8z" fill="#000000" stroke-width="none" opacity="1"></path></g></g></g><g id="svga-group-facehighlight-single"></g><g id="svga-group-eyebrows-left-move" transform="matrix(1,0,0,1,0,0)"><g id="svga-group-eyebrows-left-rotate" transform="matrix(1,1.7453292519943295e-9,-1.7453292519943295e-9,1,1.2851410247094464e-7,-1.3499310114184482e-7)"><g id="svga-group-eyebrows-left"><path id="SvgjsPath34620" d="M63.38 74.47c.22-.18 5.53-4.4 8.18-4.68 2.64-.28 18.4 3.81 19.44 5.45.47.75.57 1.33.28 1.75-.23.33-.68.5-1.35.5-.44 0-.98-.07-1.61-.21-1.05-.23-3.78-1.19-6.94-2.29-4.07-1.43-8.69-3.04-9.81-3.12-1.58-.1-6.16 2.28-7.79 3.21-.16.09-.37.04-.48-.11a.408.408 0 0 1 .08-.5z" fill="#000000" stroke-width="none" opacity="1"></path></g></g></g><g id="svga-group-eyebrows-right-move" transform="matrix(1,0,0,1,0,0)"><g id="svga-group-eyebrows-right-rotate" transform="matrix(1,1.7453292519943295e-9,-1.7453292519943295e-9,1,1.2851410247094464e-7,-2.140719459475804e-7)"><g id="svga-group-eyebrows-right"><path id="SvgjsPath34621" d="M136.62 74.47c-.22-.18-5.53-4.4-8.18-4.68-2.64-.28-18.4 3.81-19.44 5.45-.47.75-.57 1.33-.28 1.75.23.33.68.5 1.35.5.44 0 .98-.07 1.61-.21 1.05-.23 3.78-1.19 6.94-2.29 4.07-1.43 8.69-3.04 9.81-3.12 1.58-.1 6.16 2.28 7.79 3.21.16.09.37.04.48-.11.09-.17.06-.38-.08-.5z" fill="#000000" stroke-width="none" opacity="1"></path></g></g></g><g id="svga-group-beardwrap"><g id="svga-group-beard-single-move" transform="matrix(1,0,0,1,0,0)"><g id="svga-group-beard-single"></g></g></g><g id="svga-group-mustache-single-move" transform="matrix(1,0,0,1,0,0)"><g id="svga-group-mustache-single"></g></g><g id="svga-group-nose-single-move" transform="matrix(1,0,0,1,0,0)"><g id="svga-group-nose-single"><path id="SvgjsPath34803" d="M95.01 99.89c-2.09.78-5.37.13-6.47 2.2s-.19 7.05 5.95 4.98c0 0 1.29 1.62 4.27 1.75 2.98.13 4.34-2.26 4.34-2.26s2.2 1.68 4.79.52 2.14-4.14.39-5.57-5.57-.84-5.57-.84-1.62-3.04-7.7-.78z" fill="#ffffff" stroke-width="none" opacity="1"></path><path id="SvgjsPath34804" d="M108.96 101.19c-.72-.65-1.79.42-1.06 1.06 3.13 2.81-1.58 6.07-4.33 3.73-.39-.34-.88-.26-1.18.15-1.68 2.32-4.9 2.32-6.82.43a.77.77 0 0 0-.11-.27c-.78-1.24-.82-2.71-.08-3.98.49-.84-.81-1.6-1.3-.76-.88 1.5-.97 3.28-.28 4.83-1.11.59-2.45.71-3.61.12-1.81-.91-1.85-3.08-.51-4.39.69-.68-.37-1.74-1.06-1.06-1.69 1.65-1.96 4.36-.16 6.07 1.61 1.53 4.21 1.61 6.1.57 2.41 2.43 6.3 2.27 8.6-.17 1.8 1.11 4.27 1.18 5.95-.27 1.9-1.65 1.62-4.46-.15-6.06z" fill="#000000" stroke-width="none" opacity="1"></path></g></g><g id="svga-group-hair-front"><path id="SvgjsPath34893" d="M63.9 50.4c-1.1 2.2-2.6 6.8-3 13.5s1.7 21.2 0 23.5c-1.7 2.4-4.3 1.3-4.7-.6s-1.5-15-2.4-20.3-.6-18.8 0-20.5-.6-13.9.6-17.1c1.3-3.2 5.6-6.5 6.6-7.3 2.1-1.5 6-3.4 8.1-4.5C71.4 16 78.6 9 85.7 7s26.9-3 30.4-.4c3.4 2.6 7.3 4.9 9.6 6.2 2.4 1.3 10.3 5.3 13 8.3 2.8 3 5.1 12.8 5.8 16.9s1.9 13.5 1.7 17.5-.9 15-.9 18.2-.6 12.8-1.7 13.9c-1.1 1.1-4.7 1.1-5.1-1.1s1.1-16.2.2-21.8c-.9-5.6-3.4-15.6-5.1-18-1.7-2.4-5.8-10.5-10.3-10-4.5.4-12.8 6.2-22.7 6.8-6.4.4-16-2.8-21.4-6-5.3-3.1-10.2 2.4-15.3 12.9z" fill="#ffffff" stroke-width="none" opacity="1"></path><path id="SvgjsPath34894" d="M145.5 37.9c-.4-2.8-2.7-13.9-6-17.4-2.6-2.8-9.2-6.3-12.4-8l-.9-.5c-2.3-1.2-6.1-3.6-9.5-6.1-3.8-2.9-24.3-1.6-31.2.3-5.2 1.4-10.4 5.4-13.8 8.1-1.2 1-2.3 1.8-2.8 2.1-2.1 1.1-6.1 3-8.2 4.6-.1 0-5.4 3.8-7 7.7-.8 2.1-.7 7-.6 11.4.1 2.3.1 5.2-.1 5.8-.7 2-.9 15.7-.1 21 .5 2.8 1 7.9 1.4 12.3.4 4 .7 7.1.9 8.1.3 1.4 1.4 2.4 2.7 2.7.2 0 .5.1.7.1 1.2 0 2.3-.6 3.1-1.8 1.2-1.6 1-6.2.5-13.7-.2-3.8-.5-7.8-.3-10.4.5-7.7 2.3-12 2.9-13.1C68.6 43 72 38.8 75 37.9c1.2-.4 2.5-.2 3.7.6 5.6 3.4 15.3 6.6 22 6.1 6.1-.4 11.6-2.7 16-4.6 2.7-1.1 5-2.1 6.7-2.3 3.1-.3 6.4 5 8.2 7.8.5.7.9 1.4 1.2 1.8 1.5 2 4 11.6 5 17.5.5 3.2.2 9.4-.1 14.4-.2 4.1-.3 6.5-.1 7.4.2 1.1 1.1 2 2.3 2.4 1.6.5 3.6.1 4.5-.8 1.7-1.7 2-14.5 2-14.6 0-2.6.4-10.2.7-15.2l.2-2.9c.1-4-1.2-13.3-1.8-17.6zm-.3 17.6-.2 2.9c-.2 2.8-.3 6.3-.5 9.4-1.2 1.9-2.7 3.5-4.6 4.7.1-3.1.1-6-.2-7.9-.2-1.4-.6-3.3-1-5.3 2.8-1.8 5-4.2 6.5-7.1v3.3zm-10.4-8.7c3.8-3 6.6-6.9 8.2-11.5.2 1.1.4 2 .5 2.8.4 2.7 1.1 7.2 1.4 11.2-1.2 3.6-3.4 6.5-6.6 8.6-1-4.2-2.3-8.9-3.5-11.1zm-8.7-32.6c2 1.1 6 3.2 8.9 5.3-6.3 3.6-9.4 10.4-8.2 17.4-.5-.3-.9-.6-1.4-.7-3.3-2.4-6.2-5.2-8.5-8.6-3.3-4.8-7.5-17.1 1.9-17.7 2.4 1.6 4.8 3 6.4 3.9l.9.4zm-21-8.1c4.9 0 9.1.4 10.3 1.3.6.5 1.3.9 1.9 1.4-4.7 1.3-6.5 6.7-5.3 11.7 1.5 6.1 5.9 11.4 10.9 15.3h-.2c-7.6-.4-15.6-1.7-21.3-7.2-6.7-6.4-7.1-18.2 2.3-22.2.2-.1.2-.2.3-.3h1.1zM60.7 23.2C59.8 30 63.5 36.3 70 39c-1.4 1.5-2.8 3.5-4.3 6-6.9-2.3-11-8.7-10.2-15.8.9-2.3 3.5-4.7 5.2-6zM60 70.4c-3-1.6-4.5-4.9-5.5-8.2-.3-4.9-.2-11.2 0-14.2 1.2 3.1 3.6 5.7 6.7 7.2-.6 2.2-1.1 5.1-1.3 8.7-.1 1.7-.1 4 .1 6.5zm.1 16.4c-.5.7-1.1 1-1.8.9-.6-.1-1-.6-1.2-1.2-.2-.8-.5-4.2-.9-7.9-.4-4.3-.9-9.2-1.4-12.2 1.2 2.3 2.8 4.2 5.2 5.3.1.9.1 1.8.2 2.7.3 4.8.7 11.3-.1 12.4zM63 50c-.3.6-.9 1.9-1.5 3.9-3.5-1.8-5.8-5-6.6-8.8.1-1.1 0-2.8 0-5.3 0-1.3-.1-2.7-.1-4.1 1.5 4.8 5.1 8.6 10.2 10.4-.6 1.2-1.3 2.5-2 3.9zm11.5-14c-1.2.3-2.3 1-3.5 2.1-6.7-2.4-10.3-8.9-8.9-15.9 2.1-1.4 5.6-3.2 7.6-4.1.6-.3 1.4-.9 2.4-1.7-3 6.7 1.8 14.4 7 20.1-1.5-.9-3.1-1-4.6-.5zm26.1 6.6c-5.1.3-12.5-1.8-17.8-4.3-6.6-6.2-14.6-16.2-7.8-24.2 3.1-2.3 7.1-5 11-6.1 1.9-.5 4.7-1 7.7-1.3-5.9 3.7-9.1 10.6-8 17.8 1.3 8.7 7.7 14.9 15.5 18.1-.2-.1-.4 0-.6 0zm15.4-4.4c-3.5 1.5-7.6 3.2-12.2 4-7.4-2.4-13.9-7.3-16.2-15C85 18.7 88.7 9.7 97 6.4c1.5-.1 3-.2 4.5-.2-6.6 4-7.9 12.8-3.9 19.5 4.6 7.7 13.3 10.3 21.8 11.2-1.1.3-2.2.8-3.4 1.3zm12.4-.1c-1.9-7.2 1.1-14.3 7.8-17.8.7.5 1.3 1.1 1.8 1.6 1.7 1.8 3.3 6.7 4.4 11.1-1.3 5.2-4.1 9.6-8.3 12.9-.2-.4-.5-.8-.8-1.3-1.2-2-2.9-4.7-4.9-6.5zm14.5 48.8c-.3.3-1.5.6-2.5.3-.6-.2-.9-.4-.9-.8-.1-.7 0-3.9.2-6.9.1-1.7.2-3.6.2-5.4 1.8-1 3.3-2.3 4.6-3.9-.1 1.5-.1 2.8-.1 3.6-.1 3.9-.8 12.1-1.5 13.1z" fill="#000000" stroke-width="none" opacity="1"></path></g><g id="svga-group-glasses-single-move" transform="matrix(1,0,0,1,0,0)"><g id="svga-group-glasses-single"><path id="SvgjsPath34829" d="M62.3 79.75c-1.59.87-1.64 3.97-.75 10.07.89 6.1 1.99 7.74 3.7 8.43 1.71.69 9.94 2.19 17.34 1.37 7.4-.82 7.74-2.06 8.7-3.08.96-1.03 4.59-8.36 4.59-12.54s-13.98-4.8-17.13-4.93c-3.16-.15-14.19-.56-16.45.68z" fill="url(#SvgjsLinearGradient34830)" opacity="1"></path><path id="SvgjsPath34833" d="M137.55 79.75c1.59.87 1.64 3.97.75 10.07-.89 6.1-1.99 7.74-3.7 8.43-1.71.69-9.94 2.19-17.34 1.37-7.4-.82-7.74-2.06-8.7-3.08-.96-1.03-4.59-8.36-4.59-12.54s13.98-4.8 17.13-4.93c3.16-.15 14.19-.56 16.45.68z" fill="url(#SvgjsLinearGradient34834)" opacity="1"></path><path id="SvgjsPath34837" d="M121.18 100.34c-2.08 0-3.85-.1-5.26-.28-4.66-.62-6.59-1.09-8.39-3.54-1.56-2.13-3.04-6.67-3.75-8.85-.14-.42-.25-.76-.33-1.01-.63-1.82-2.41-2.11-2.49-2.13h-2.01c-.13.02-1.92.31-2.55 2.13-.09.25-.2.59-.33 1-.71 2.18-2.19 6.73-3.75 8.86-1.8 2.46-3.73 2.92-8.39 3.54-1.42.19-3.19.28-5.26.28-4.19 0-8.63-.39-11.16-.78-3.78-.58-5.07-2.49-5.83-5.18-.5-1.74-.83-4.4-1.07-6.34-.12-.97-.22-1.74-.3-2.15-.16-.78-.55-1.01-.86-1.2-.25-.15-.47-.28-.66-.74-.56-1.34-.95-4.37-.34-4.73.54-.32 5.31-.79 12.51-.79 1.87 0 3.75.03 5.57.1 8.57.3 15.6 1.63 18.22 2.18 2.06.44 4.15.65 4.17.66h1.99c.06 0 2.15-.22 4.21-.66 2.62-.56 9.65-1.88 18.22-2.18 1.83-.06 3.7-.1 5.57-.1 7.2 0 11.97.47 12.51.79.61.36.22 3.4-.34 4.73-.19.46-.41.59-.66.74-.31.19-.7.43-.86 1.2-.08.41-.18 1.17-.3 2.15-.24 1.94-.57 4.61-1.07 6.34-.77 2.69-2.06 4.6-5.83 5.18-2.55.39-6.99.78-11.18.78.01 0 .01 0 0 0zm9.58-21.03c-1.6 0-3.43.06-5.36.13-1.34.04-2.74.09-4.19.12-8.5.18-15.36 1.7-16.32 3.62-.4.81-.75 2.37.85 6.62 1.77 4.69 3.31 7.32 4.71 8.02 1.59.8 6.48 1.92 12.36 1.92.93 0 1.86-.03 2.76-.09 7.09-.45 9.93-1.52 11.22-4.24 1.32-2.77 2.58-11.51 1.43-14.07-.74-1.69-3.52-2.03-7.46-2.03zm-61.67 0c-3.94 0-6.72.34-7.47 2.02-1.15 2.56.11 11.3 1.43 14.07 1.3 2.72 4.13 3.79 11.22 4.24.9.06 1.83.09 2.76.09 5.88 0 10.77-1.12 12.36-1.92 1.4-.7 2.94-3.32 4.71-8.02 1.6-4.26 1.25-5.82.85-6.62-.96-1.91-7.82-3.43-16.32-3.62-1.45-.03-2.85-.08-4.19-.12-1.92-.06-3.75-.12-5.35-.12z" fill="#ffffff" stroke-width="none" opacity="1"></path><path id="SvgjsPath34838" d="M141.61 78.89c-.74-.44-6.09-.85-12.7-.85-1.79 0-3.68.03-5.59.1-8.96.31-16.22 1.75-18.29 2.19-2.07.44-4.13.65-4.13.65h-1.96s-2.07-.21-4.13-.65c-2.07-.44-9.33-1.88-18.29-2.19-1.91-.07-3.79-.1-5.59-.1-6.61 0-11.96.4-12.7.85-.94.56-.31 4.01.19 5.2.5 1.19 1.25.69 1.5 1.88s.63 5.89 1.38 8.52c.75 2.63 2.07 4.82 6.14 5.45 2.75.42 7.18.79 11.22.79 1.94 0 3.79-.08 5.31-.29 4.7-.63 6.76-1.13 8.64-3.7s3.57-8.33 4.13-9.96c.56-1.63 2.19-1.88 2.19-1.88h1.96s1.63.25 2.19 1.88 2.25 7.39 4.13 9.96 3.95 3.07 8.64 3.7c1.52.2 3.37.29 5.31.29 4.04 0 8.47-.37 11.22-.79 4.07-.63 5.39-2.82 6.14-5.45.75-2.63 1.13-7.33 1.38-8.52.25-1.19 1-.69 1.5-1.88.52-1.19 1.15-4.64.21-5.2zm-.61 4.07c-.87-.75-1.75-1.55-2.7-2.2-.11-.16-.25-.3-.4-.44a6.12 6.12 0 0 0-1.18-1.31c.25.02.5.03.73.05 1.18 1.19 2.43 2.31 3.66 3.45-.04.14-.07.3-.11.45zm-4.36 13.91c-.06-.08-.1-.16-.15-.25.08-.1.16-.2.23-.31.04.08.09.15.14.23-.07.1-.14.22-.22.33zm-.56.65c-.06-.08-.11-.17-.17-.25.13-.12.25-.24.36-.37.04.09.08.17.14.24-.11.13-.21.26-.33.38zm-.7.57a2 2 0 0 0-.19-.22c.17-.12.33-.24.48-.37.04.09.1.16.16.23-.14.12-.28.25-.45.36zm-.78.43c-.05-.07-.11-.14-.16-.21.17-.09.32-.18.48-.28.06.07.12.14.19.21-.17.1-.32.2-.51.28zm-2.21.56c.19-.05.37-.11.55-.17.02.04.05.08.07.12-.19.04-.37.09-.57.12-.02-.02-.03-.05-.05-.07zm.83-.26c.12-.04.25-.08.36-.12l.09.18c-.12.04-.26.07-.39.1-.02-.06-.03-.11-.06-.16zm.63-.24c.1-.04.21-.09.31-.14.03.07.07.15.1.22-.1.04-.2.08-.31.11a1.14 1.14 0 0 0-.1-.19zm3.07-2.61c.08-.13.15-.26.22-.4.05-.1.1-.23.15-.36.04.06.11.1.17.14-.11.29-.24.56-.38.83-.05-.08-.11-.15-.16-.21zm1.95-7.88c-.03.23-.06.47-.09.72-.01 0-.01-.01-.02-.01l.09-.72s.01 0 .02.01zm-1.42 6.7c.06-.17.12-.34.18-.53.05.05.1.1.15.14-.05.19-.12.36-.18.54-.04-.05-.09-.1-.15-.15zm.32-1.03c.03-.11.06-.21.09-.33.04.05.09.09.14.13l-.09.35c-.04-.04-.09-.1-.14-.15zm.33-.66c-.04-.05-.08-.11-.11-.16.03-.14.07-.27.1-.41.03.05.06.1.1.14-.03.15-.06.29-.09.43zm.11-1.14c.03-.16.07-.31.1-.47l.07.07c-.03.19-.06.37-.09.55-.02-.05-.06-.09-.08-.15zm.19-.95.12-.66c.01.01.03.02.04.02-.03.23-.07.47-.1.7a.17.17 0 0 1-.06-.06zm.24-1.19-.03-.03c.03-.18.05-.36.08-.54l.02.02c-.02.18-.04.36-.07.55zm.26-2.21c.04-.35.07-.7.09-1.04l.06.06c-.04.29-.08.63-.13 1.01-.01-.01-.01-.02-.02-.03zm.23-1.49c-.03-.04-.07-.08-.1-.12.01-.24.03-.49.03-.73.07.08.14.15.21.21-.03.1-.06.2-.09.32-.01.1-.03.21-.05.32zm-.07-1.31v-.61c.18.22.37.43.59.62-.1.11-.19.24-.27.4-.11-.13-.21-.27-.32-.41zM115.32 99.6c-.39-.05-.76-.11-1.11-.16.04-.03.08-.08.12-.12.35.07.71.13 1.09.19-.03.03-.06.05-.1.09 0-.01 0 0 0 0zm-1.63-.27c-.01.01 0 .01-.01.02-.24-.04-.47-.08-.69-.13.06-.04.12-.1.17-.16.21.05.44.1.67.15-.05.04-.1.07-.14.12zm-1.25-.24c-.01 0-.01.01-.01.02-.35-.08-.67-.16-.97-.26.1-.04.2-.1.29-.16.28.08.59.17.92.25-.08.05-.15.09-.23.15zm-1.41-.49c-.03.02-.04.06-.06.09-.27-.1-.52-.21-.76-.33.08-.04.16-.09.24-.14.21.09.45.19.74.29-.05.03-.11.05-.16.09zm-1.21-.45c-.13-.08-.26-.16-.38-.24.09-.04.17-.1.26-.15.12.1.24.17.36.24-.08.04-.16.1-.24.15zm-.78-.55c-.12-.1-.25-.21-.36-.33.14-.02.28-.05.41-.11.1.12.21.21.31.31-.13.03-.25.07-.36.13zm-.66-.64c-.12-.13-.23-.27-.35-.41.17-.01.34-.04.49-.1.09.13.19.24.28.36-.14.03-.28.09-.42.15zm-.62-.78c-.08-.12-.17-.26-.25-.39.2.04.4.06.61.03.05.08.1.15.15.23-.18.02-.35.07-.51.13zm-.5-.78c-.1-.17-.19-.36-.28-.54.22.11.45.18.7.2.08.14.16.3.24.43-.23-.02-.44-.06-.66-.09zm-.5-.96c-.1-.21-.21-.44-.31-.66.24.15.5.3.76.4.08.15.15.31.23.45-.21-.08-.45-.14-.68-.19zm-.51-1.1c-.07-.16-.13-.31-.2-.47.21.12.42.22.66.28.08.18.16.34.25.51-.23-.11-.48-.22-.71-.32zm-.39-.94c-.07-.19-.15-.37-.22-.55.21.15.44.29.68.38.07.16.14.32.2.47a4.93 4.93 0 0 0-.66-.3zm-.43-1.11c-.08-.21-.16-.42-.23-.62.22.19.44.36.68.51.07.17.14.36.21.52-.21-.15-.43-.28-.66-.41zm-.38-1.06c-.09-.26-.18-.52-.27-.77.19.14.38.27.59.39.01.03.02.05.03.07.11.28.21.53.31.8-.22-.17-.44-.33-.66-.49zm-.47-1.34c-.08-.23-.15-.45-.22-.66.19.2.39.39.62.53.06.19.13.39.2.59-.19-.16-.38-.31-.6-.46zm-.39-1.18a.983.983 0 0 1-.05-.16c-.07-.22-.14-.42-.2-.6.2.25.42.47.68.62.05.18.11.38.17.58-.2-.16-.41-.3-.6-.44zm-2.61-6.06c.46.63.94 1.25 1.41 1.87.38.5.76 1.05 1.19 1.51.01.29.04.61.09.98-1.06-1.44-2.08-2.92-3.21-4.29.11-.02.28-.04.52-.07zm.86-.11c.44.89 1.14 1.72 1.74 2.49.01.02.04.02.05.03-.02.16-.04.33-.05.53-.3-.43-.65-.83-.97-1.23-.45-.58-.89-1.16-1.35-1.73.18-.04.37-.06.58-.09zm1-.06c.3.48.66 1.08 1.16 1.37.02.01.04.01.06.01-.03.05-.08.1-.1.15-.09.19-.19.42-.25.7-.46-.75-.94-1.56-1.52-2.22.21-.03.43-.07.66-.1-.02.02-.03.05-.01.09zm1.31 1.25c0-.01 0-.02-.01-.03-.32-.48-.78-.86-1.12-1.34 0-.01-.01-.01-.02-.01.13-.02.27-.05.41-.07.25.37.57.9.96 1.18-.08.09-.16.18-.22.27zm.44-.46c-.17-.39-.53-.74-.83-1.04.18-.03.37-.07.55-.11.22.29.45.59.71.85-.15.09-.3.19-.43.3zm.66-.45c-.18-.27-.43-.52-.66-.76.27-.06.59-.12.95-.19.16.19.32.38.5.55-.29.13-.55.26-.79.4zm1.02-.49c-.13-.19-.29-.35-.45-.52.19-.04.4-.08.61-.12.08.16.18.32.28.46-.15.07-.3.12-.44.18zm.67-.26a3.55 3.55 0 0 0-.23-.43c.08-.02.17-.03.25-.05.08.13.18.26.27.38-.09.04-.19.07-.29.1zm.64-.2c-.07-.12-.15-.23-.23-.34l.33-.06c.07.1.15.2.22.3-.11.03-.21.06-.32.1zm.63-.18c-.06-.09-.12-.19-.19-.28.26-.04.52-.09.8-.13.07.07.14.14.21.2-.28.06-.55.13-.82.21zm1.05-.27c-.04-.07-.09-.13-.14-.2.21-.03.43-.07.64-.1.05.06.12.1.18.14-.23.06-.46.11-.68.16zm1.04-.22c-.04-.05-.08-.09-.12-.14.12-.02.25-.04.38-.06.04.04.08.08.13.12-.13.03-.26.06-.39.08zm.66-.12c-.02-.04-.05-.08-.08-.12.12-.02.24-.04.37-.05l.1.1c-.13.02-.26.04-.39.07zm.69-.12c-.03-.03-.05-.07-.08-.1.29-.04.59-.08.9-.12.03.02.05.05.08.08-.31.04-.6.09-.9.14zm1.25-.19c-.02-.03-.04-.05-.06-.08.22-.03.46-.06.69-.08.03.02.06.05.09.07l-.72.09zm.99-.13c0-.01 0-.03-.01-.04l-.03-.03c.16-.02.32-.04.48-.05.02.02.04.05.06.07-.16.02-.33.03-.5.05zm.83-.09c-.02-.02-.03-.05-.05-.07.23-.03.46-.05.7-.08.02.03.03.06.05.08-.24.02-.47.05-.7.07zm1.07-.1a.555.555 0 0 0-.06-.08l.92-.09.09.09c-.32.02-.63.05-.95.08zm1.36-.11c-.02-.03-.03-.07-.06-.1.15-.01.3-.03.45-.04.02.04.03.08.06.11l-.45.03zm.85-.05c-.02-.04-.05-.08-.07-.12.21-.02.42-.03.63-.05.03.04.07.09.11.13-.22.01-.45.02-.67.04zm1.09-.06c-.04-.05-.07-.1-.11-.14.2-.01.39-.03.58-.04.04.06.1.11.15.16-.2.01-.41.01-.62.02zm.93-.03c0-.01 0-.03-.01-.04-.03-.05-.05-.09-.08-.14l.48-.03c.04.07.08.13.13.19-.17.01-.35.01-.52.02zm.96-.03c-.06-.07-.12-.13-.17-.2l.58-.03c.05.07.1.15.16.21-.19.01-.38.02-.57.02zm.98-.02c-.04-.08-.08-.15-.13-.22.31-.01.61-.03.92-.04h.02c.07.09.15.16.22.23l-1.03.03zm1.4-.05c-.04-.08-.09-.16-.14-.23.18-.01.36-.01.54-.01.06.1.13.17.24.23-.22 0-.43.01-.64.01zm.74-.25c.15 0 .29-.01.44-.01.06.08.14.15.22.22-.18.01-.38.01-.56.02.01-.02.02-.04.01-.07-.04-.04-.07-.1-.11-.16zm.93.2c-.03-.08-.08-.15-.12-.22.24-.01.47-.01.71-.02.03.07.07.14.11.22-.23.01-.47.01-.7.02zm.92-.03c-.02-.07-.05-.14-.08-.21.33-.01.67-.01 1-.01.02.06.04.13.06.19l-.98.03zm1.24-.04-.06-.18c.26 0 .53-.01.79-.01.06.06.12.11.18.17-.3.01-.6.01-.91.02zm1.28-.03a1.07 1.07 0 0 0-.14-.16h.62c.05.05.09.1.14.15-.21 0-.42.01-.62.01zm.96-.01c-.04-.05-.08-.1-.13-.15h.29c.04.05.09.1.13.14-.1.01-.2.01-.29.01zm.73-.01h-.09c-.04-.04-.07-.09-.11-.13.14 0 .29 0 .43.01.05.05.11.09.17.13-.13 0-.26-.01-.4-.01zm.77.01c0-.01 0-.02-.01-.02-.04-.04-.09-.07-.13-.11.23 0 .45.01.67.01.05.05.1.09.16.13-.22 0-.46 0-.69-.01zm1.19-.07c-.02-.01-.03-.02-.05-.04.27.01.53.01.78.02.1.07.2.12.3.18-.31-.03-.64-.04-.98-.06.01-.03 0-.07-.05-.1zm1.42.21c-.08-.07-.17-.14-.26-.21l.76.03c.12.1.25.2.38.29-.28-.04-.58-.08-.88-.11zm1.91.33a6.87 6.87 0 0 0-.68-.48c.3.01.58.03.86.04.25.25.5.5.74.75-.28-.12-.59-.22-.92-.31zm1.82-.33c.28.02.55.04.8.07.73.93 1.61 1.8 2.58 2.5-.02.13-.03.27-.06.4-1.09-1-2.18-2.01-3.32-2.97zm2.07.2c.45.51.88 1.06 1.4 1.49-.01.14-.02.29-.04.44-.76-.67-1.52-1.34-2.27-2.03.33.03.64.07.91.1zm.77.12c.2.28.41.58.64.84v.25c-.31-.41-.68-.79-1.05-1.16.15.02.29.04.41.07zm.5.13s-.01-.01 0 0c-.01-.01 0-.01 0 0 0-.01 0 0 0 0zm-42.32 4.62-.06.01h-.01c-.67-.99-1.55-1.9-2.38-2.77.46.08.89.14 1.25.19.21.44.45.85.72 1.26.3.45.61.96 1.03 1.31h-.55zm-.87.27c-.53-.6-1.17-1.14-1.72-1.72-.48-.51-.92-1.05-1.37-1.58.39.08.78.15 1.15.22.76.98 1.53 2.04 2.43 2.9-.13.03-.3.09-.49.18zm-.84.51c-.32-.39-.71-.73-1.06-1.08-.26-.25-.52-.51-.78-.76-.01-.03-.03-.06-.04-.08-.17-.34-.49-.65-.91-.94.02-.03.02-.06.01-.09-.18-.41-.45-.76-.72-1.11.31.06.58.12.82.17.48.67 1 1.31 1.55 1.92.5.55 1.03 1.16 1.62 1.64-.16.08-.33.2-.49.33zm-.45.42c-.35-.19-.71-.38-1.06-.56 0-.42-.04-.76-.11-1.04.14.13.27.26.4.39.33.32.66.67 1.03.96-.09.08-.17.16-.26.25zm-.5.78c-.19-.14-.4-.24-.61-.35h-.03c.03-.21.05-.41.06-.6.25.21.56.37.87.45-.1.15-.2.31-.29.5zm-.61 1.71c-.09-.14-.21-.26-.36-.38.05-.21.1-.4.14-.59.13.11.27.21.43.3-.04.12-.08.24-.12.37-.03.09-.06.2-.09.3zm-.31.93c-.11-.1-.22-.2-.35-.28.07-.22.13-.42.19-.62.11.1.24.17.39.22-.08.21-.15.43-.23.68zm-.8 2.26c-.13-.08-.27-.16-.4-.23.05-.14.11-.27.16-.42.13.09.26.16.4.22-.05.14-.1.29-.16.43zm-.32.86c-.12-.11-.25-.2-.4-.28.06-.14.12-.3.17-.44.12.1.26.17.42.19-.05.17-.12.35-.19.53zm-.25.62c-.13-.09-.28-.16-.44-.21.06-.13.11-.26.17-.4.13.09.27.17.43.22-.05.13-.11.26-.16.39zm-.69 1.59c-.15-.09-.3-.17-.46-.23.07-.14.13-.27.2-.42.16.05.32.08.49.09.01 0 .02-.01.03-.01-.09.19-.17.39-.26.57zm-.33.66c-.15-.08-.29-.17-.42-.3.05-.09.09-.2.14-.29.15.08.31.15.48.21-.06.13-.13.25-.2.38zm-.41.77c-.14-.11-.27-.23-.37-.4l.18-.33c.12.13.27.23.44.28-.09.15-.17.3-.25.45zm-.49.76-.03.03c-.12-.11-.25-.21-.39-.31.11-.17.22-.33.33-.52.09.15.22.28.37.35-.1.16-.19.32-.28.45zm-.71.84c-.1-.1-.2-.19-.31-.27.14-.18.29-.37.44-.59.12.1.25.19.38.28-.17.21-.33.4-.51.58zm-.77.68c-.09-.05-.17-.11-.25-.19.17-.15.34-.32.52-.52.09.09.19.17.28.25-.17.17-.36.32-.55.46zm-.92.56c-.05-.06-.11-.12-.16-.18.03-.01.08-.03.1-.05.16-.08.33-.2.49-.32.06.07.13.13.2.19-.2.13-.41.25-.63.36zm-1.03.42c-.05-.07-.09-.14-.13-.21.25-.08.47-.16.66-.24.07.06.15.11.23.16-.24.1-.49.2-.76.29zm-2.96.65c-.02-.04-.03-.09-.05-.13.34-.07.66-.13.97-.2.02.06.05.11.08.17-.31.04-.64.1-1 .16zm-.37-.07c.01.04.02.08.04.12-.22.03-.43.06-.66.1-.01-.03-.02-.07-.04-.1.22-.05.44-.08.66-.12zm1.54-.33c.2-.05.41-.1.59-.14.04.07.08.13.12.19-.21.05-.42.09-.64.14-.02-.07-.04-.13-.07-.19zm.9-.23c.14-.04.27-.08.39-.11.03.08.07.15.12.21-.13.04-.26.07-.4.11-.03-.08-.07-.15-.11-.21zm5.84-5.49c-.14-.07-.28-.11-.42-.14.09-.19.17-.4.26-.6.15.08.3.14.46.18-.09.21-.17.41-.26.61-.01-.02-.02-.04-.04-.05zm.86-3.24c.02-.06.04-.1.06-.16.04-.12.08-.22.12-.33.12.08.24.16.37.23-.05.15-.11.31-.16.46-.13-.07-.26-.14-.39-.2zm.63-.49c-.12-.09-.23-.17-.36-.25.06-.18.12-.35.18-.52.11.1.23.17.36.25-.06.18-.12.34-.18.52zm-22.7-10.6c-.05-.07-.1-.13-.16-.19.27 0 .53 0 .8.01.06.07.14.14.21.21l-.85-.03zm1.16.04c-.05-.08-.1-.15-.15-.22.31 0 .61.01.91.02.06.08.12.16.19.23l-.95-.03zm1.24.04c-.06-.08-.13-.16-.2-.23.25.01.49.01.74.02l.18.24c-.24-.02-.48-.02-.72-.03zm.98.03c-.05-.08-.11-.16-.17-.24.22.01.44.01.65.02.09.09.18.17.28.25l-.76-.03zm1.19.04c-.07-.09-.15-.17-.24-.24.34.01.68.03 1.02.04.06.08.13.15.2.23-.33-.02-.66-.03-.98-.03zm1.31.03c-.04-.08-.09-.15-.14-.22.31.02.61.03.92.05.06.07.11.13.17.19-.17 0-.34-.01-.51-.02-.15.01-.29 0-.44 0zm1.23.04c-.05-.06-.09-.12-.14-.18.33.02.65.04.98.07.02.05.04.11.06.15-.31-.02-.61-.03-.9-.04zm1.18.04-.06-.15c.2.01.4.03.6.04.05.05.1.09.15.14-.23-.01-.46-.01-.69-.03zm1.22.07c-.04-.05-.07-.08-.11-.12.21.02.41.03.62.05.04.04.07.08.1.11-.2-.01-.4-.02-.61-.04zm1.11.08c-.01-.01 0-.03-.01-.04-.02-.02-.05-.04-.07-.07.35.03.7.07 1.04.1l.09.09c-.35-.02-.7-.05-1.05-.08zm1.35.13a.405.405 0 0 1-.05-.09c.32.03.63.07.94.1l.09.09c-.32-.03-.65-.07-.98-.1zm1.24.14c-.03-.03-.06-.06-.08-.09.32.04.63.08.93.11.02.03.03.06.05.09-.3-.04-.59-.08-.9-.11zm1.31.17a.467.467 0 0 0-.05-.1c.32.04.63.08.94.13.02.04.05.09.08.12-.32-.05-.64-.1-.97-.15zm1.36.22c0-.05-.02-.09-.03-.13.25.04.51.07.75.11.06.07.13.13.19.19-.29-.06-.6-.11-.91-.17zm1.3.26c0-.01 0-.02-.01-.03-.05-.06-.1-.12-.16-.18.26.04.52.08.77.12.06.09.13.18.2.27-.25-.07-.52-.13-.8-.18zm1.1.25v-.03c-.04-.09-.09-.17-.14-.26.24.04.48.08.71.12.18.19.37.36.6.5.06.04.14-.04.1-.1-.07-.11-.15-.21-.23-.32.25.04.48.08.7.13.13.21.26.42.4.63-.64-.25-1.35-.47-2.14-.67zm2.5.81c-.13-.25-.29-.48-.45-.72.24.05.47.09.69.13.21.37.44.73.71 1.06-.29-.16-.6-.32-.95-.47zm6.52 2.7c-.26-.5-.66-.92-.98-1.39-.24-.35-.46-.72-.69-1.08.53.07.87.1.91.11h.03c.41.84.87 1.67 1.43 2.42h-.68c0-.01-.01-.03-.02-.06zm-28.04-5.29c.05.06.1.12.16.18-.24-.01-.47-.01-.71-.02-.04-.06-.09-.11-.13-.17h.03c.22.01.43.01.65.01zm-5 20.01c-.04.05-.08.11-.1.15-.26-.07-.49-.15-.72-.24.05-.05.1-.11.16-.18.21.1.43.19.66.27zm-1.12-.19c-.26-.11-.5-.24-.73-.37.07-.06.13-.13.19-.21.23.14.47.27.73.4-.08.04-.14.11-.19.18zm-1.01-.53c-.15-.1-.27-.21-.4-.32.05-.08.1-.16.14-.25.16.13.32.26.5.38-.09.06-.17.12-.24.19zm-.6-.48c-.15-.14-.29-.3-.42-.45.06-.06.12-.13.18-.2.14.15.28.3.43.45-.07.06-.13.12-.19.2zm-.59-.65c-.15-.2-.28-.41-.41-.63.06-.04.12-.09.19-.14.13.21.27.4.42.59-.07.06-.13.12-.2.18zm-.54-.86a7.89 7.89 0 0 1-.23-.51c.06-.03.12-.07.18-.1.01.03.02.06.03.08.07.14.14.26.22.4-.07.04-.14.08-.2.13zm-.34-.76c-.05-.13-.1-.27-.15-.4a.99.99 0 0 0 .17-.11c.05.15.11.28.16.41-.06.03-.12.07-.18.1zm-.23-.65c-.04-.13-.09-.26-.13-.4l-.03-.1c.05-.02.11-.05.17-.07.05.17.1.33.15.48-.05.03-.11.05-.16.09zm-.23-.79c-.04-.16-.08-.32-.12-.49.05-.01.1-.04.15-.06.05.18.09.35.14.51-.06.01-.12.02-.17.04zm-2.08-10.55c-.36-.29-.72-.59-1.11-.86-.04-.21-.08-.42-.11-.63.68.77 1.46 1.48 2.16 2.21v.04c-.31-.26-.63-.51-.94-.76zm-1.03-3.87c.64.84 1.42 1.58 2.23 2.24.01.01.02 0 .04.01-.05.17-.09.36-.12.56a39.95 39.95 0 0 1-2.42-2.45c.02-.13.05-.24.1-.3.04-.02.1-.04.17-.06zm2.07 3.27c-.03.19-.05.39-.07.6-.74-.79-1.47-1.62-2.29-2.31-.02-.31-.04-.61-.02-.85.68.94 1.47 1.83 2.38 2.56zm-.06 3.47c-.04-.03-.08-.07-.12-.1-.02-.11-.04-.22-.05-.3-.03-.14-.07-.26-.11-.38.08.05.17.1.25.15l.03.63zm.03.42c.06.84.16 1.7.28 2.55l-.02-.02c-.05-.41-.1-.8-.15-1.17l-.18-1.42c.02.02.05.04.07.06zm.42 3.75-.09-.68c.01.01.02.01.03.02.04.23.07.46.11.68-.01 0-.02-.01-.05-.02.01 0 .01 0 0 0zm.36 2.16h.13c.05.2.09.38.14.57-.05.01-.1.01-.15.02-.05-.2-.09-.39-.12-.59zm-.04-.2c-.05-.25-.09-.51-.13-.77.03 0 .06.01.09.01.05.26.11.52.17.77-.05 0-.09-.01-.13-.01zm-.18-1.07c-.02-.14-.04-.29-.07-.43.02.01.05.01.07.02.03.14.05.28.08.42-.03-.01-.06-.01-.08-.01zm-.14-10.1c-.01.03-.02.08-.04.11-.7-.59-1.32-1.24-1.93-1.92.16-.03.33-.05.54-.08.07.3.46.58.65.77.3.3.62.59.96.84-.07.1-.14.18-.18.28zm.39-.6c-.32-.28-.65-.55-.95-.86-.13-.13-.26-.33-.42-.48.22-.02.45-.05.7-.07.32.37.67.75 1.05 1.07-.14.11-.28.22-.38.34zm.65-.55c-.26-.32-.57-.61-.88-.89l.75-.06c.19.24.39.51.62.7-.17.07-.34.15-.49.25zm.77-.39c-.13-.22-.32-.41-.52-.59.23-.02.46-.03.71-.04.12.16.24.31.36.46-.19.05-.38.1-.55.17zm.8-.25c-.1-.14-.19-.27-.29-.4.14-.01.29-.02.44-.02.09.12.2.23.31.33-.16.03-.32.05-.46.09zm.9-.18c-.07-.1-.14-.19-.23-.27l.66-.03c.07.07.13.14.2.21-.21.03-.43.06-.63.09zm1.02-.13c-.05-.06-.1-.13-.16-.19l1.02-.03c.05.05.09.1.14.14-.34.02-.68.05-1 .08zm1.34-.09c-.04-.05-.07-.09-.12-.14.25-.01.51-.01.78-.02.04.04.07.09.12.13-.27 0-.53.01-.78.03zm1.23-.04c-.03-.04-.07-.09-.11-.13.38-.01.77-.01 1.17-.02l.14.14h-.49c-.25 0-.48.01-.71.01zm1.49 0c-.04-.05-.1-.1-.14-.14h.86c.05.06.1.11.15.16-.3-.01-.58-.02-.87-.02zM58.9 83.15l.78.63c.37.3.73.6 1.1.88v.43c-.32-.23-.67-.44-1.01-.63-.05-.03-.11-.07-.15-.1-.23-.14-.36-.22-.51-.57-.07-.18-.14-.41-.21-.64zm7.94 15.88c.01-.03.02-.07.04-.14.26.08.54.16.83.24-.01.02-.01.05-.02.07-.04-.01-.09-.01-.13-.02-.26-.03-.48-.09-.72-.15zm1.07.21c0-.02 0-.03.01-.05.15.04.29.08.45.11-.17-.02-.31-.04-.46-.06zm9.12.11c-.9 0-1.81-.03-2.74-.09-6.88-.43-9.67-1.43-10.91-4.03-1.24-2.6-2.54-11.28-1.43-13.76.65-1.45 3.31-1.8 7.13-1.8 2.7 0 5.98.17 9.54.25 8.62.19 15.16 1.75 15.99 3.41.31.62.74 2.05-.87 6.32-1.61 4.28-3.14 7.12-4.53 7.81-1.55.8-6.43 1.89-12.18 1.89zm6.18.34c.01.02.01.05.02.07-.23.02-.45.05-.69.07-.01-.02-.01-.03-.02-.05.24-.03.47-.06.69-.09zm-.97.12c0 .01.01.03.01.04-.3.02-.61.05-.93.06.31-.03.61-.07.92-.1zm1.64-.12c-.12.02-.26.03-.38.04-.01-.03-.02-.05-.02-.08.26-.04.53-.07.78-.11.01.03.02.06.04.09l-.42.06zm12.03-12.75c-.13-.16-.27-.29-.43-.42.04-.18.07-.35.09-.51.19.12.37.23.58.3-.03.07-.07.14-.1.21-.04.13-.09.27-.14.42zm5.05-2.79h-.32c-.51-.8-1.01-1.59-1.46-2.42h.49c.28.58.73 1.09 1.11 1.6.25.34.52.66.78.99-.3-.11-.52-.15-.55-.15l-.05-.02zm1.23.44c-.38-.58-.8-1.12-1.21-1.67-.31-.4-.6-.84-.95-1.2h.74c.99 1.75 2.32 3.36 3.61 4.89.01.01.02.01.03.01.02.1.05.21.07.32-.23-.32-.52-.62-.76-.88-.04-.04-.09-.05-.13-.04a3.84 3.84 0 0 0-1.4-1.43zm13.78 15.1c-.05-.01-.09-.01-.14-.02.02-.02.04-.06.06-.08.82.13 1.71.24 2.64.32-.95-.05-1.81-.12-2.56-.22zm6.85-.34c-5.74 0-10.62-1.09-12.19-1.88-1.39-.7-2.92-3.54-4.53-7.81-1.61-4.28-1.18-5.7-.87-6.32.83-1.66 7.38-3.22 15.99-3.41 3.57-.08 6.85-.25 9.54-.25 3.82 0 6.48.35 7.13 1.8 1.12 2.48-.19 11.16-1.43 13.76-1.24 2.6-4.03 3.59-10.91 4.03-.92.06-1.84.08-2.73.08zm9.4-.23c.02.02.04.05.06.07-.25.04-.51.08-.79.11.26-.05.49-.12.73-.18zm7.69-14.55c-.25-.31-.58-.58-.87-.81-.02-.36-.05-.71-.09-1.03.16.17.31.34.47.5.32.33.63.7 1.02.95.01.01.02 0 .03.01-.07.07-.15.12-.26.18-.08.05-.19.12-.3.2zm.67-.51v-.02c-.24-.39-.61-.71-.93-1.03-.25-.25-.51-.5-.76-.74-.05-.28-.11-.52-.19-.75.71.63 1.48 1.21 2.2 1.8-.05.17-.11.33-.17.47-.05.12-.1.2-.15.27z" fill="#000000" stroke-width="none" opacity="1"></path></g></g></g></g></g><rect id="svga-credit-rect" width="200" height="15" x="0" y="185" fill="#ecf0f1" opacity="0.5" style="display: none;"></rect><text id="svga-credit-text" font-family="Avenir Next, Roboto, Helvetica, Arial, sans-serif" font-size="10px" text-anchor="start" font-weight="400" size="10px" anchor="start" weight="400" fill="#333333" x="33.402061462402344" y="182.71133995056152" style="display: none;"><tspan id="SvgjsTspan34614" dy="13" x="33.402061462402344">Created on AvatarMaker.com</tspan></text></g><defs id="SvgjsDefs34561"><linearGradient id="SvgjsLinearGradient34830" x1="78.4207" y1="78.8847" x2="78.4207" y2="99.8607" gradientUnits="userSpaceOnUse" class="svga-on-canvas-glasses-gradient-single-0-null"><stop id="SvgjsStop34831" stop-opacity="1" stop-color="#ffffff" offset="0.0708" ></stop><stop id="SvgjsStop34832" stop-opacity="0" stop-color="#ffffff" offset="1" ></stop></linearGradient><linearGradient id="SvgjsLinearGradient34834" x1="35.2707" y1="78.8847" x2="35.2707" y2="99.8607" gradientTransform="matrix(-1 0 0 1 156.7 0)" gradientUnits="userSpaceOnUse" class="svga-on-canvas-glasses-gradient-single-1-null"><stop id="SvgjsStop34835" stop-opacity="1" stop-color="#ffffff" offset="0.0708" ></stop><stop id="SvgjsStop34836" stop-opacity="0" stop-color="#ffffff" offset="1" ></stop></linearGradient></defs></svg>