<?xml version="1.0" standalone="no"?>
<!DOCTYPE svg PUBLIC "-//W3C//DTD SVG 20010904//EN"
 "http://www.w3.org/TR/2001/REC-SVG-20010904/DTD/svg10.dtd">
<svg version="1.0" xmlns="http://www.w3.org/2000/svg"
 width="96.000000pt" height="96.000000pt" viewBox="0 0 96.000000 96.000000"
 preserveAspectRatio="xMidYMid meet">

<g transform="translate(0.000000,96.000000) scale(0.100000,-0.100000)"
fill="#000000" stroke="none">
<path d="M442 901 c-7 -4 -16 -21 -21 -37 -6 -23 -27 -40 -112 -90 -91 -53
-107 -59 -130 -50 -41 15 -79 -14 -79 -59 0 -24 6 -39 20 -47 18 -12 20 -24
20 -138 0 -114 -2 -126 -20 -138 -14 -8 -20 -23 -20 -47 0 -45 38 -74 79 -59
23 9 39 3 130 -50 90 -52 106 -66 113 -93 15 -59 101 -59 116 0 7 27 23 41
113 93 91 53 107 59 130 50 41 -15 79 14 79 59 0 24 -6 39 -20 47 -18 12 -20
24 -20 138 0 114 2 126 20 138 14 8 20 23 20 47 0 45 -38 74 -79 59 -23 -9
-39 -3 -130 50 -85 50 -106 67 -112 90 -9 34 -24 46 -59 46 -14 0 -31 -4 -38
-9z m58 -36 c15 -18 5 -35 -20 -35 -10 0 -22 5 -25 10 -7 11 12 40 25 40 4 0
13 -7 20 -15z m-42 -121 l3 -51 -78 -45 -78 -46 -40 23 c-23 13 -40 31 -40 41
0 20 189 135 215 131 11 -1 16 -17 18 -53z m177 -2 c114 -66 122 -81 60 -117
l-40 -23 -77 45 -78 46 0 47 c0 77 4 77 135 2z m-455 -72 c0 -24 -26 -38 -42
-22 -16 16 -2 42 22 42 13 0 20 -7 20 -20z m645 -5 c0 -30 -39 -27 -43 3 -3
20 0 23 20 20 15 -2 23 -10 23 -23z m-365 -60 c0 -59 -26 -76 -76 -49 -19 10
-34 22 -34 25 0 5 95 66 108 68 1 1 2 -19 2 -44z m147 -22 c2 -5 -12 -17 -31
-27 -50 -27 -76 -10 -76 50 l0 44 52 -30 c29 -16 54 -33 55 -37z m-361 11 l44
-26 0 -88 0 -88 -42 -25 c-23 -14 -48 -23 -55 -20 -10 4 -13 38 -13 132 0 114
3 141 17 141 3 0 24 -12 49 -26z m534 -114 c0 -95 -3 -129 -13 -133 -7 -3 -32
6 -55 20 l-42 25 0 88 0 88 42 25 c23 14 48 23 55 20 10 -4 13 -38 13 -133z
m-380 0 c0 -20 -9 -31 -40 -49 l-40 -22 0 71 0 71 40 -22 c31 -18 40 -29 40
-49z m240 -1 l0 -70 -40 22 c-55 31 -55 66 -2 97 20 12 38 22 40 22 1 0 2 -32
2 -71z m-130 31 c11 -11 20 -24 20 -30 0 -5 -9 -19 -20 -30 -11 -11 -24 -20
-30 -20 -5 0 -19 9 -30 20 -11 11 -20 25 -20 30 0 6 9 19 20 30 11 11 25 20
30 20 6 0 19 -9 30 -20z m-69 -100 c14 -8 19 -21 19 -56 l0 -44 -52 30 c-29
16 -54 33 -55 37 -3 8 44 40 60 42 5 1 17 -4 28 -9z m138 -7 c17 -10 30 -21
28 -26 -1 -4 -26 -21 -55 -37 l-52 -30 0 44 c0 32 5 48 18 55 23 14 26 14 61
-6z m-176 -103 l57 -32 0 -49 c0 -34 -5 -51 -15 -55 -19 -8 -219 108 -223 128
-2 10 13 26 40 42 37 22 45 24 63 12 11 -7 46 -28 78 -46z m332 -6 c0 -22
-198 -139 -220 -130 -10 4 -15 20 -15 54 l0 49 78 46 77 45 40 -23 c23 -13 40
-31 40 -41z m-552 14 c7 -21 -4 -38 -23 -38 -23 0 -34 16 -26 35 7 18 43 20
49 3z m642 -13 c0 -13 -8 -21 -22 -23 -17 -3 -23 2 -23 16 0 10 3 22 7 26 13
13 38 1 38 -19z m-319 -176 c3 -6 -1 -18 -10 -27 -15 -15 -17 -15 -32 0 -9 9
-13 21 -10 27 9 14 43 14 52 0z"/>
</g>
</svg>
