<?xml version="1.0" standalone="no"?>
<!DOCTYPE svg PUBLIC "-//W3C//DTD SVG 20010904//EN"
 "http://www.w3.org/TR/2001/REC-SVG-20010904/DTD/svg10.dtd">
<svg version="1.0" xmlns="http://www.w3.org/2000/svg"
 width="96.000000pt" height="96.000000pt" viewBox="0 0 96.000000 96.000000"
 preserveAspectRatio="xMidYMid meet">
<metadata>
Created by potrace 1.14, written by Peter Selinger 2001-2017
</metadata>
<g transform="translate(0.000000,96.000000) scale(0.100000,-0.100000)"
fill="#000000" stroke="none">
<path d="M452 907 c-12 -6 -26 -24 -30 -41 -7 -25 -26 -41 -114 -92 -72 -42
-110 -59 -119 -53 -24 15 -49 10 -73 -14 -28 -28 -25 -71 5 -90 17 -11 19 -26
19 -135 0 -114 -2 -125 -21 -141 -55 -45 10 -140 70 -102 9 6 47 -11 119 -53
89 -52 107 -67 114 -93 16 -61 100 -61 116 1 7 26 25 41 113 92 87 50 109 59
127 51 52 -23 108 42 77 89 -8 13 -20 24 -25 24 -6 0 -10 51 -10 126 0 116 2
127 21 143 55 44 -10 140 -69 102 -9 -6 -49 12 -120 53 -89 52 -107 67 -114
93 -10 37 -50 56 -86 40z m45 -38 c16 -16 5 -39 -17 -39 -25 0 -35 18 -20 35
15 18 22 19 37 4z m-39 -125 l3 -51 -79 -45 -78 -44 -39 22 c-22 12 -41 29
-43 37 -4 17 193 139 218 134 11 -1 16 -17 18 -53z m180 -5 c114 -67 120 -78
59 -113 l-37 -21 -78 42 c-76 40 -77 42 -80 83 -4 49 2 70 20 70 7 0 59 -27
116 -61z m-455 -63 c8 -19 -16 -38 -37 -30 -16 6 -21 25 -9 37 12 12 41 7 46
-7z m645 -7 c4 -21 -26 -33 -44 -18 -7 6 -10 17 -7 25 7 20 47 14 51 -7z
m-368 -62 c0 -32 -5 -45 -21 -55 -18 -12 -26 -11 -55 4 -19 10 -34 21 -34 24
0 4 99 69 108 70 1 0 2 -19 2 -43z m147 -24 c2 -5 -12 -17 -31 -27 -29 -15
-37 -16 -55 -4 -16 10 -21 23 -21 56 l0 42 52 -30 c29 -16 54 -33 55 -37z
m-322 -103 l0 -90 -40 -25 c-63 -37 -68 -27 -68 115 0 142 5 152 68 115 l40
-25 0 -90z m491 129 c3 -6 7 -63 8 -127 1 -142 -6 -154 -67 -117 l-42 24 0 91
-1 90 41 25 c46 28 51 29 61 14z m-376 -129 c0 -19 -10 -31 -39 -47 l-39 -22
0 69 0 70 39 -23 c29 -16 39 -28 39 -47z m239 1 l-2 -70 -38 22 c-53 30 -53
64 -1 93 20 12 38 22 40 23 1 1 2 -30 1 -68z m-129 29 c11 -11 20 -24 20 -30
0 -5 -9 -19 -20 -30 -11 -11 -24 -20 -30 -20 -5 0 -19 9 -30 20 -11 11 -20 25
-20 30 0 6 9 19 20 30 11 11 25 20 30 20 6 0 19 -9 30 -20z m-69 -100 c14 -8
19 -21 19 -56 l0 -44 -52 30 c-29 16 -54 33 -55 37 -3 8 44 40 60 42 5 1 17
-4 28 -9z m138 -7 c17 -10 30 -21 28 -26 -1 -4 -26 -21 -55 -37 l-52 -30 0 44
c0 32 5 48 18 55 23 14 26 14 61 -6z m-119 -184 c0 -35 -4 -51 -15 -55 -19 -8
-219 108 -223 128 -2 9 14 26 39 40 l42 25 78 -45 79 -44 0 -49z m275 74 c0
-21 -198 -138 -220 -129 -10 4 -15 21 -15 55 l0 49 78 44 77 45 40 -23 c22
-13 40 -31 40 -41z m-552 15 c7 -21 -4 -38 -24 -38 -24 0 -37 29 -18 41 20 12
37 11 42 -3z m642 -13 c0 -23 -34 -33 -46 -14 -10 17 9 41 30 37 9 -2 16 -12
16 -23z m-319 -176 c3 -6 -1 -18 -10 -27 -16 -16 -18 -16 -31 2 -8 10 -12 23
-9 27 7 13 42 11 50 -2z"/>
</g>
</svg>
