<?xml version="1.0" standalone="no"?>
<!DOCTYPE svg PUBLIC "-//W3C//DTD SVG 20010904//EN"
 "http://www.w3.org/TR/2001/REC-SVG-20010904/DTD/svg10.dtd">
<svg version="1.0" xmlns="http://www.w3.org/2000/svg"
 width="512.000000pt" height="512.000000pt" viewBox="0 0 512.000000 512.000000"
 preserveAspectRatio="xMidYMid meet">
<metadata>
Created by potrace 1.14, written by Peter Selinger 2001-2017
</metadata>
<g transform="translate(0.000000,512.000000) scale(0.100000,-0.100000)"
fill="#000000" stroke="none">
<path d="M2939 4729 c-137 -11 -242 -60 -340 -158 -137 -137 -194 -340 -146
-519 14 -51 14 -53 -9 -70 -103 -76 -549 -391 -554 -391 -3 0 -21 25 -40 56
-56 89 -219 243 -258 243 -6 0 -12 4 -14 8 -8 19 -165 77 -233 87 -22 4 -51 8
-65 11 -43 7 -152 5 -211 -5 -219 -37 -397 -152 -537 -346 -34 -48 -96 -194
-108 -257 -35 -179 -10 -378 66 -529 102 -203 314 -367 533 -414 15 -3 26 -9
23 -13 -2 -4 -7 -32 -11 -62 -3 -30 -13 -95 -20 -145 -8 -49 -17 -112 -20
-140 -8 -62 -12 -88 -20 -141 -6 -39 -8 -41 -57 -52 -140 -33 -291 -152 -356
-282 -109 -218 -62 -487 114 -650 208 -193 533 -197 738 -9 64 58 131 154 148
211 6 22 18 42 25 45 8 3 46 1 86 -5 40 -7 92 -14 117 -17 25 -3 74 -11 110
-16 36 -6 76 -12 90 -14 14 -2 77 -11 140 -20 63 -9 130 -18 149 -21 19 -2 46
-6 60 -9 14 -2 47 -7 74 -11 54 -7 53 -7 61 -54 15 -96 77 -230 150 -327 224
-294 631 -391 966 -230 25 12 47 25 48 30 2 4 9 7 14 7 15 0 104 68 152 116
111 111 195 275 221 430 13 82 6 237 -15 319 -38 147 -130 300 -235 393 l-48
42 71 93 c190 247 229 292 248 288 63 -12 225 -9 279 5 125 33 242 116 314
223 69 104 94 186 94 311 -1 407 -430 669 -795 484 l-47 -24 -123 143 c-67 78
-125 144 -128 147 -3 3 -43 50 -90 105 -46 55 -100 117 -120 138 -52 57 -55
65 -32 90 36 41 78 112 101 172 29 74 39 223 21 308 -26 129 -121 266 -234
338 -111 73 -216 99 -347 88z m118 -200 c57 -22 93 -73 103 -151 5 -41 4 -48
-14 -55 -35 -15 -51 -10 -52 17 -2 97 -72 153 -147 119 -31 -14 -48 -43 -56
-98 -4 -29 -12 -45 -20 -43 -6 1 -22 3 -34 4 -22 2 -23 5 -16 53 4 27 11 59
15 70 15 39 58 76 103 89 48 14 71 13 118 -5z m139 -238 c5 -1 20 -10 32 -21
21 -20 22 -29 22 -163 0 -78 -3 -152 -6 -164 -12 -43 -53 -51 -264 -49 -224 1
-243 7 -257 73 -4 21 -6 43 -4 48 2 6 3 61 3 123 0 110 1 112 27 131 14 10 37
21 51 22 19 3 344 2 396 0z m-456 -595 c159 -77 340 -77 491 -1 l51 26 43 -48
c38 -42 203 -233 260 -302 11 -13 29 -33 40 -45 84 -89 168 -199 159 -210 -19
-26 -90 -135 -106 -165 -16 -28 -19 -30 -45 -20 -15 6 -29 10 -31 9 -1 -1 -21
2 -45 6 -23 4 -49 8 -57 9 -21 3 -249 44 -280 50 -14 3 -79 14 -145 25 -66 11
-142 25 -170 30 -81 16 -208 39 -240 44 -24 3 -147 25 -295 52 -14 2 -40 7
-59 10 -18 3 -43 8 -55 10 -11 3 -38 7 -60 10 -21 4 -77 14 -125 23 l-86 17
-7 60 c-9 72 -29 165 -39 179 -6 9 57 56 339 253 26 18 58 42 72 52 14 11 56
41 94 68 l70 49 75 -77 c57 -58 95 -86 151 -114z m-1482 -12 c74 -30 126 -103
139 -191 7 -45 7 -58 4 -83 0 -5 -22 -10 -48 -10 l-48 0 -2 49 c-3 96 -56 151
-142 147 -92 -3 -127 -51 -140 -188 -1 -5 -21 -8 -46 -8 -36 0 -45 4 -46 18
-7 119 50 226 141 265 46 20 142 21 188 1z m207 -329 c28 -12 64 -55 69 -85
10 -53 1 -375 -12 -397 -29 -51 -55 -56 -346 -57 -270 -1 -317 4 -349 35 -32
32 -35 57 -35 239 1 209 6 227 70 258 33 17 62 19 310 17 150 -1 282 -6 293
-10z m2848 -293 c27 -24 55 -81 57 -117 5 -66 2 -70 -35 -70 -19 0 -36 5 -37
10 0 6 -2 15 -3 20 -2 6 -3 22 -4 37 -1 38 -40 79 -80 84 -65 8 -111 -41 -111
-116 0 -23 -5 -28 -30 -32 -38 -6 -40 -3 -40 43 0 52 32 122 69 148 62 44 161
41 214 -7z m-2317 -66 c16 -3 70 -12 119 -21 50 -9 113 -20 140 -25 186 -32
297 -52 340 -60 28 -5 66 -12 85 -15 19 -3 58 -10 85 -15 28 -5 64 -12 80 -15
17 -3 109 -19 205 -36 96 -17 189 -33 205 -36 17 -2 62 -10 100 -18 39 -7 115
-21 170 -30 55 -9 103 -20 107 -23 3 -4 9 -25 12 -46 4 -21 9 -49 12 -62 5
-19 1 -26 -22 -34 -16 -6 -38 -15 -49 -20 -11 -5 -94 -39 -185 -75 -91 -36
-174 -70 -185 -75 -11 -5 -76 -32 -145 -60 -69 -28 -134 -55 -145 -60 -11 -4
-76 -31 -145 -58 -69 -28 -201 -82 -295 -120 -292 -119 -462 -188 -695 -282
-124 -50 -234 -95 -245 -100 -47 -20 -53 -18 -117 44 -58 56 -106 86 -205 127
-23 10 -30 18 -27 34 2 11 6 40 9 65 3 25 8 59 10 75 2 17 7 53 11 80 3 28 7
57 9 65 4 20 13 86 20 135 12 95 7 89 108 112 206 47 379 166 489 338 42 65
98 188 98 215 0 6 4 9 8 6 5 -3 22 -7 38 -10z m2442 -170 c25 -24 25 -27 24
-173 -2 -143 -3 -148 -27 -173 l-25 -25 -215 0 -215 0 -25 29 c-25 29 -26 34
-24 171 1 158 9 181 68 193 17 4 118 6 223 5 189 -2 192 -2 216 -27z m-679
-431 c28 -36 56 -65 61 -65 6 0 10 -4 10 -9 0 -7 -64 -96 -99 -137 -5 -7 -51
-65 -101 -130 -51 -66 -93 -120 -95 -122 -2 -2 -36 7 -76 20 -63 19 -95 23
-214 22 -125 -1 -149 -4 -225 -29 -47 -15 -103 -36 -125 -48 -106 -53 -224
-156 -296 -257 -58 -81 -124 -243 -128 -318 -1 -8 -11 -11 -28 -7 -16 2 -80
12 -143 20 -63 9 -128 18 -145 20 -66 11 -252 37 -275 40 -14 1 -41 5 -60 9
-19 3 -52 8 -72 11 -42 5 -101 14 -135 21 -16 3 -23 14 -28 46 -4 24 -14 55
-21 70 -13 24 -12 28 3 37 16 8 1143 467 1408 573 55 22 114 46 130 54 31 14
186 78 195 80 9 2 64 24 230 93 91 38 168 69 172 70 3 1 29 -28 57 -64z
m-2633 -698 c53 -28 83 -78 91 -153 5 -50 4 -54 -16 -54 -37 0 -23 -15 17 -17
44 -3 78 -19 88 -42 4 -9 8 -77 9 -151 3 -153 -6 -185 -55 -197 -24 -6 -358
-9 -420 -4 -8 1 -26 11 -39 22 -24 20 -25 23 -25 170 1 138 2 151 22 172 27
28 33 29 220 29 83 0 152 4 152 9 0 5 -4 9 -9 9 -5 0 -11 22 -15 49 -9 67 -43
101 -101 101 -36 0 -48 -5 -69 -31 -14 -17 -27 -40 -27 -52 -1 -12 -2 -26 -4
-32 -1 -5 -3 -16 -3 -23 -1 -9 -13 -12 -34 -10 -29 3 -33 7 -34 33 -1 43 15
95 39 129 41 58 143 79 213 43z m2199 -20 c103 -32 163 -122 161 -242 -1 -40
-4 -49 -21 -51 -47 -7 -62 5 -67 54 -9 97 -54 144 -137 144 -30 0 -61 -6 -76
-16 -27 -18 -64 -82 -64 -112 -1 -62 -5 -69 -41 -70 -59 -1 -62 3 -57 65 7 66
19 103 52 151 52 75 155 107 250 77z m248 -345 c55 -37 56 -41 57 -255 0 -288
17 -275 -351 -276 -140 0 -271 2 -292 5 -23 4 -49 17 -67 36 l-30 30 0 194 c0
154 3 201 15 224 29 55 43 58 355 59 260 1 287 -1 313 -17z"/>
<path d="M2952 4158 c-15 -15 -16 -64 -2 -73 6 -3 10 -21 10 -40 0 -55 48 -55
52 1 1 16 8 38 15 49 17 26 16 40 -3 59 -18 19 -55 21 -72 4z"/>
<path d="M1120 3172 c-27 -22 -30 -74 -6 -101 9 -10 16 -35 16 -58 0 -46 19
-68 50 -58 16 5 20 15 20 52 0 29 6 53 17 65 57 63 -31 154 -97 100z"/>
<path d="M4168 2719 c-19 -11 -25 -64 -8 -74 6 -3 10 -21 10 -40 0 -21 6 -35
17 -39 22 -9 32 3 35 42 1 18 8 38 15 44 18 15 16 42 -5 61 -21 19 -39 21 -64
6z"/>
<path d="M1024 1339 c-28 -10 -36 -33 -22 -67 15 -35 15 -37 17 -66 1 -32 37
-42 52 -15 6 11 8 25 6 32 -2 7 2 25 10 41 26 50 -11 95 -63 75z"/>
<path d="M3248 1172 c-51 -6 -76 -74 -40 -110 10 -10 18 -36 20 -61 3 -51 8
-61 27 -61 24 0 43 28 41 62 -2 19 5 45 16 60 40 58 4 119 -64 110z"/>
</g>
</svg>
